<?xml version="1.0" encoding="UTF-8" standalone="no"?>
<svg
   id="svg4379"
   height="128"
   width="128"
   version="1.1"
   xml:space="preserve"
   xmlns:xlink="http://www.w3.org/1999/xlink"
   xmlns="http://www.w3.org/2000/svg"
   xmlns:svg="http://www.w3.org/2000/svg"
   xmlns:rdf="http://www.w3.org/1999/02/22-rdf-syntax-ns#"
   xmlns:cc="http://creativecommons.org/ns#"
   xmlns:dc="http://purl.org/dc/elements/1.1/"><defs
     id="defs4381"><linearGradient
       id="linearGradient36"><stop
         style="stop-color:#0eaf10;stop-opacity:1;"
         offset="0"
         id="stop36" /><stop
         style="stop-color:#38940f;stop-opacity:0.64319247;"
         offset="1"
         id="stop37" /></linearGradient><linearGradient
       id="linearGradient34"><stop
         style="stop-color:#f0d559;stop-opacity:1;"
         offset="0"
         id="stop34" /><stop
         style="stop-color:#e1c91a;stop-opacity:0.85680753;"
         offset="1"
         id="stop35" /></linearGradient><linearGradient
       id="linearGradient32"><stop
         style="stop-color:#ea3e3e;stop-opacity:1;"
         offset="0"
         id="stop32" /><stop
         style="stop-color:#c11616;stop-opacity:0.95305163;"
         offset="1"
         id="stop33" /></linearGradient><linearGradient
       id="linearGradient880"><stop
         style="stop-color:#f6f6f6;stop-opacity:1;"
         offset="0"
         id="stop876" /><stop
         style="stop-color:#e6e7ea;stop-opacity:1;"
         offset="1"
         id="stop878" /></linearGradient><linearGradient
       gradientTransform="matrix(2.7297298,0,0,2.7297298,-1.5135124,1.486514)"
       gradientUnits="userSpaceOnUse"
       xlink:href="#linearGradient3924-776"
       id="linearGradient3159"
       y2="43"
       x2="23.99999"
       y1="4.999989"
       x1="23.99999" /><linearGradient
       id="linearGradient3924-776"><stop
         offset="0"
         style="stop-color:#ffffff;stop-opacity:1"
         id="stop3124" /><stop
         offset="0.06316455"
         style="stop-color:#ffffff;stop-opacity:0.23529412"
         id="stop3126" /><stop
         offset="0.95056331"
         style="stop-color:#ffffff;stop-opacity:0.15686275"
         id="stop3128" /><stop
         offset="1"
         style="stop-color:#ffffff;stop-opacity:0.39215687"
         id="stop3130" /></linearGradient><radialGradient
       gradientTransform="matrix(2.003784,0,0,1.4,27.98813,-17.4)"
       gradientUnits="userSpaceOnUse"
       xlink:href="#linearGradient3688-166-749-5"
       id="radialGradient2455-1"
       fy="43.5"
       fx="4.9929786"
       r="2.5"
       cy="43.5"
       cx="4.9929786" /><linearGradient
       id="linearGradient3688-166-749-5"><stop
         offset="0"
         style="stop-color:#181818;stop-opacity:1"
         id="stop2883-0" /><stop
         offset="1"
         style="stop-color:#181818;stop-opacity:0"
         id="stop2885-5" /></linearGradient><radialGradient
       gradientTransform="matrix(2.003784,0,0,1.4,-20.01187,-104.4)"
       gradientUnits="userSpaceOnUse"
       xlink:href="#linearGradient3688-464-309-8"
       id="radialGradient2457-5"
       fy="43.5"
       fx="4.9929786"
       r="2.5"
       cy="43.5"
       cx="4.9929786" /><linearGradient
       id="linearGradient3688-464-309-8"><stop
         offset="0"
         style="stop-color:#181818;stop-opacity:1"
         id="stop2889-9" /><stop
         offset="1"
         style="stop-color:#181818;stop-opacity:0"
         id="stop2891-4" /></linearGradient><linearGradient
       gradientUnits="userSpaceOnUse"
       xlink:href="#linearGradient3702-501-757-0"
       id="linearGradient2459-7"
       y2="39.999443"
       x2="25.058096"
       y1="47.027729"
       x1="25.058096" /><linearGradient
       id="linearGradient3702-501-757-0"><stop
         offset="0"
         style="stop-color:#181818;stop-opacity:0"
         id="stop2895-0" /><stop
         offset="0.5"
         style="stop-color:#181818;stop-opacity:1"
         id="stop2897-2" /><stop
         offset="1"
         style="stop-color:#181818;stop-opacity:0"
         id="stop2899-6" /></linearGradient><linearGradient
       id="linearGradient3811"><stop
         offset="0"
         style="stop-color:#000000;stop-opacity:1"
         id="stop3813" /><stop
         offset="1"
         style="stop-color:#000000;stop-opacity:0"
         id="stop3815" /></linearGradient><radialGradient
       gradientTransform="matrix(1.5563924,0,0,0.16978827,70.270358,102.13029)"
       gradientUnits="userSpaceOnUse"
       xlink:href="#linearGradient3811"
       id="radialGradient4377"
       fy="93.467628"
       fx="-4.0287771"
       r="35.338131"
       cy="93.467628"
       cx="-4.0287771" /><linearGradient
       xlink:href="#linearGradient880"
       id="linearGradient882"
       x1="62.871635"
       y1="15.90732"
       x2="62.871635"
       y2="118.42699"
       gradientUnits="userSpaceOnUse" /><filter
       style="color-interpolation-filters:sRGB"
       x="-0.035555787"
       width="1.0711116"
       y="-0.035408414"
       height="1.0708168"
       id="filter32"><feGaussianBlur
         in="SourceGraphic"
         result="result8"
         stdDeviation="5"
         id="feGaussianBlur26" /><feComposite
         result="result18"
         operator="xor"
         in2="result8"
         in="SourceGraphic"
         id="feComposite26" /><feComposite
         in2="result18"
         result="result16"
         operator="arithmetic"
         k2="0.5"
         k1="1"
         in="result8"
         id="feComposite27"
         k3="0"
         k4="0" /><feComposite
         in="result16"
         operator="atop"
         result="result6"
         in2="result8"
         id="feComposite28" /><feOffset
         in="result6"
         result="result17"
         id="feOffset28" /><feDisplacementMap
         result="result4"
         scale="100"
         yChannelSelector="A"
         xChannelSelector="A"
         in="result17"
         in2="result16"
         id="feDisplacementMap28" /><feComposite
         k3="1"
         in="result17"
         operator="arithmetic"
         result="result2"
         in2="result4"
         id="feComposite29"
         k1="0"
         k2="0"
         k4="0" /><feComposite
         operator="out"
         in="result2"
         result="fbSourceGraphic"
         in2="result17"
         id="feComposite30" /><feComposite
         result="result14"
         operator="over"
         in2="fbSourceGraphic"
         in="fbSourceGraphic"
         id="feComposite31" /><feComposite
         in="result14"
         operator="in"
         in2="SourceGraphic"
         result="result15"
         id="feComposite32" /></filter><linearGradient
       xlink:href="#linearGradient32"
       id="linearGradient33"
       x1="24.761982"
       y1="116.06639"
       x2="341.54599"
       y2="116.06639"
       gradientUnits="userSpaceOnUse" /><linearGradient
       xlink:href="#linearGradient34"
       id="linearGradient35"
       x1="267.48444"
       y1="144.99019"
       x2="278.64215"
       y2="383.12982"
       gradientUnits="userSpaceOnUse" /><linearGradient
       xlink:href="#linearGradient36"
       id="linearGradient37"
       x1="63.971153"
       y1="315.51071"
       x2="283.87253"
       y2="56.222946"
       gradientUnits="userSpaceOnUse" /></defs><metadata
     id="metadata4384"><rdf:RDF><cc:Work
         rdf:about=""><dc:format>image/svg+xml</dc:format><dc:type
           rdf:resource="http://purl.org/dc/dcmitype/StillImage" /><dc:title /></cc:Work></rdf:RDF></metadata><path
     d="M 119,118 A 55,6 0 0 1 9.0000016,118 55,6 0 1 1 119,118 Z"
     id="path3041"
     style="color:#000000;display:inline;overflow:visible;visibility:visible;opacity:0.2;fill:url(#radialGradient4377);fill-opacity:1;fill-rule:nonzero;stroke:none;stroke-width:1;marker:none;enable-background:accumulate" /><g
     transform="matrix(2.6999989,0,0,0.55555607,-0.8000019,94.888882)"
     id="g2036"
     style="display:inline"><g
       transform="matrix(1.052632,0,0,1.285713,-1.263158,-13.42854)"
       id="g3712"
       style="opacity:0.4"><rect
         width="5"
         height="7"
         x="38"
         y="40"
         id="rect2801"
         style="fill:url(#radialGradient2455-1);fill-opacity:1;stroke:none" /><rect
         width="5"
         height="7"
         x="-10"
         y="-47"
         transform="scale(-1)"
         id="rect3696"
         style="fill:url(#radialGradient2457-5);fill-opacity:1;stroke:none" /><rect
         width="28"
         height="7.0000005"
         x="10"
         y="40"
         id="rect3700"
         style="fill:url(#linearGradient2459-7);fill-opacity:1;stroke:none" /></g></g><rect
     width="103"
     height="103"
     rx="10"
     ry="10"
     x="12.5"
     y="15.5"
     id="rect5505-21-3"
     style="color:#000000;display:inline;overflow:visible;visibility:visible;fill:url(#linearGradient882);fill-opacity:1;fill-rule:nonzero;stroke:none;stroke-width:1;marker:none;enable-background:accumulate" /><rect
     width="101"
     height="101"
     rx="9"
     ry="9"
     x="13.5"
     y="16.5"
     id="rect6741-7"
     style="display:inline;opacity:1;fill:none;stroke:url(#linearGradient3159);stroke-width:1;stroke-linecap:round;stroke-linejoin:round;stroke-miterlimit:4;stroke-dasharray:none;stroke-dashoffset:0;stroke-opacity:1" /><rect
     width="103"
     height="103"
     rx="10"
     ry="10"
     x="12.5"
     y="15.5"
     id="rect5505-21-6"
     style="color:#000000;display:inline;overflow:visible;visibility:visible;opacity:0.5;fill:none;stroke:#767676;stroke-width:1;stroke-linecap:round;stroke-linejoin:round;stroke-miterlimit:4;stroke-dasharray:none;stroke-dashoffset:0;stroke-opacity:1;marker:none;enable-background:accumulate" /><g
     id="g1"
     transform="matrix(0.23853251,0,0,0.23853251,17.995459,21.48454)"><path
       d="m 192,27 c -60.668,0 -113.85,31.636793 -143.59,79.11619 -0.006,0.0102 -0.01268,0.0203 -0.01905,0.0305 -1.35e-4,6.2e-4 1.28e-4,7.4e-4 0,10e-4 -15.933,25.44833 -25.137,55.44614 -25.137,87.568 0,89.25443 70.996,162.13079 160.24,166.50736 2.8164,0.13508 5.6562,0.20839 8.5078,0.20839 93.199,0 168.75,-74.63983 168.75,-166.71483 0,-27.90139 -6.9497,-54.19343 -19.211,-77.30232 -28.207,-53.148198 -84.582,-89.412501 -149.54,-89.412501 z"
       opacity="0.3"
       id="path1"
       style="display:inline;opacity:0.194393;stroke-width:0.993952" /><path
       d="m 192,27 c -60.668,0 -113.85,31.486718 -143.59,78.74089 -0.006,0.0101 -0.01268,0.0202 -0.01905,0.0303 -1.35e-4,6.2e-4 1.28e-4,7.4e-4 0,9.9e-4 -15.933,25.32762 -25.137,55.18312 -25.137,87.15261 0,88.83103 70.996,161.36169 160.24,165.7175 2.8164,0.13443 5.6562,0.2074 8.5078,0.2074 93.199,0 168.75,-74.28576 168.75,-165.92398 0,-27.76904 -6.9497,-53.93635 -19.211,-76.93563 -28.207,-52.896074 -84.582,-88.98835 -149.54,-88.98835 z"
       opacity="0.3"
       id="path16"
       style="display:inline;opacity:0.194393;stroke-width:0.991592" /><path
       d="m 341.54,110 c -236.36,188.83 -118.18,94.414 0,0 z m 0,0 -136.62,0.0547 46.328,130.71 -67.754,116.02 c 2.8164,0.13672 5.6562,0.21094 8.5078,0.21094 93.199,0 168.75,-75.551 168.75,-168.75 0,-28.242 -6.9492,-54.855 -19.211,-78.246 z"
       fill="#88b0f5"
       id="path2"
       style="fill:url(#linearGradient35);fill-opacity:1" /><path
       d="M 192,19.5 C 131.332,19.5 78.15,51.523 48.41,99.582 l 68.039,111.46 75.555,-102.04 c 4.1094,0.0352 8.2109,0.38672 12.262,1.0547 l 137.28,-0.0547 C 313.339,56.205 256.964,19.498 192.006,19.498 Z M 48.39,99.613 c -40.926,195.76 -20.461,97.879 0,0 z"
       fill="#2861bf"
       id="path3"
       style="fill:url(#linearGradient33);fill-opacity:1" /><path
       d="m 48.406,99.58 c -15.945,25.766 -25.156,56.141 -25.156,88.668 0,90.344 70.996,164.11 160.24,168.54 l 67.754,-116.02 c -15.02,16.973 -36.582,26.703 -59.246,26.73 l -75.555,-56.451 z"
       fill="#4a87f0"
       id="path4"
       style="display:inline;fill:url(#linearGradient37)" /><path
       d="m 192,19.947142 c -60.668,0 -113.85,32.155911 -143.59,80.414388 -0.006,0.0103 -0.01268,0.0206 -0.01905,0.0309 -1.35e-4,6.3e-4 1.28e-4,7.6e-4 0,10e-4 -15.933,25.86591 -25.137,56.35594 -25.137,89.00488 0,90.71897 70.996,164.79114 160.24,169.23952 2.8164,0.13729 5.6562,0.21181 8.5078,0.21181 93.199,0 168.75,-75.86457 168.75,-169.45039 0,-28.35922 -6.9497,-55.08267 -19.211,-78.57076 -28.207,-54.02028 -84.582,-90.879631 -149.54,-90.879631 z"
       opacity="0.3"
       id="path20"
       style="display:inline;opacity:0.833645;fill:#cccccc;stroke-width:1.00207;filter:url(#filter32)" /><g
       fill-opacity="0.95296"
       id="g7"
       style="display:inline;opacity:0.158879"><path
         d="M 341.55,109.96 199.74271,125.11462 201.35,110.042 Z"
         opacity="0.3"
         id="path5"
         style="display:none" /><path
         d="M 341.55,109.96 188.57568,123.46895 201.35,110.042 Z"
         opacity="0.3"
         id="path14"
         style="display:inline;opacity:0.371963" /><path
         d="M 341.55,109.96 187.40021,118.88459 201.35,110.042 Z"
         opacity="0.3"
         id="path15"
         style="display:inline;opacity:0.371963" /><path
         d="M 183.49,356.8 237.96181,240.11905 254.177,235.7245 Z"
         opacity="0.3"
         id="path6" /><path
         d="M 183.49,356.8 239.37238,242.94019 254.177,235.7245 Z"
         opacity="0.3"
         id="path18"
         style="display:inline;opacity:0.308411" /><path
         d="M 48.277,99.59 126.14762,204.27343 121.406,219.21 Z"
         opacity="0.3"
         id="path7"
         style="display:inline" /><path
         d="M 48.277,99.59 125.91252,208.74024 121.406,219.21 Z"
         opacity="0.3"
         id="path19"
         style="display:inline" /></g><path
       d="m 271.25,194.10433 c 0,42.85713 -35.48,77.60034 -79.246,77.60034 -43.766,0 -79.246,-34.74321 -79.246,-77.60034 0,-42.85713 35.48,-77.60033 79.246,-77.60033 43.766,0 79.246,34.7432 79.246,77.60033 z"
       opacity="0.3"
       id="path8"
       style="display:inline;opacity:0.149533;stroke-width:0.989562" /><path
       d="m 271.25,193.39905 c 0,42.46761 -35.48,76.89504 -79.246,76.89504 -43.766,0 -79.246,-34.42743 -79.246,-76.89504 0,-42.46762 35.48,-76.89505 79.246,-76.89505 43.766,0 79.246,34.42743 79.246,76.89505 z"
       opacity="0.3"
       id="path17"
       style="display:inline;opacity:0.123364;stroke-width:0.985055" /><path
       d="m 271.25,188.25 c 0,43.766 -35.48,79.246 -79.246,79.246 -43.766,0 -79.246,-35.48 -79.246,-79.246 0,-43.766 35.48,-79.246 79.246,-79.246 43.766,0 79.246,35.48 79.246,79.246 z"
       fill="#ffffff"
       id="path9"
       style="display:inline" /><path
       d="m 257.39,188.25 c 0,36.113 -29.277,65.391 -65.391,65.391 -36.114,0 -65.391,-29.277 -65.391,-65.391 0,-36.114 29.277,-65.391 65.391,-65.391 36.114,0 65.391,29.277 65.391,65.391 z"
       fill="#357af0"
       id="path10"
       style="display:inline" /><g
       stroke-width="1.3333"
       id="g13"
       style="display:inline"><path
         d="M 256.01,25.998 256.002,26 c -80.891,0 -151.8,42.697 -191.45,106.78 l 0.926878,1.27141 C 105.66388,72.701411 177.1931,29.261903 256.0031,29.261903 l 0.16473,-0.15873 c 82.525,0 158.81335,51.249762 197.97335,117.487757 l 1.26022,0.0764 c -37.609,-71.729 -112.78,-120.67 -199.39,-120.67 z M 64.52,132.818 c -54.568,261.01 -27.281,130.51 0,0 z m 0,10 c -27.281,130.51 -54.568,261.01 0,0 z"
         fill="#b7cdf0"
         opacity="0.3"
         id="path11"
         style="display:inline"
         transform="scale(0.75)" /><path
         transform="scale(0.75)"
         d="m 168.96,246 c -3e-5,-1.65784 -0.14648,3.3214 -0.14648,5 0,48.152 39.036,87.188 87.188,87.188 48.152,0 87.189,-39.037 87.189,-87.188 0,-1.6786 -0.21153,1.8273 -0.30517,0.1721 -2.5917,45.824 -40.41127,84.69568 -86.88427,84.69568 -46.473,0 -87.04024,-39.1109 -87.041,-85.00914 z"
         opacity="0.3"
         id="path12"
         style="display:inline" /><path
         d="m 192,120.1977 c -36.114,0 -65.391,19.45293 -65.391,43.44866 0,0.8365 0.0397,1.66681 0.10986,2.49166 1.94378,-22.83611 30.426,-40.95699 65.28075,-40.95699 34.85475,0 63.33675,18.12088 65.28075,40.95699 0.0702,-0.82485 0.11133,-1.65516 0.11133,-2.49166 0,-23.99573 -29.27775,-43.44866 -65.39175,-43.44866 z"
         fill="#f6f6f6"
         opacity="0.3"
         id="path13"
         style="stroke-width:0.815114" /><path
         d="m 192,121.19513 c -36.114,0 -59.51362,19.51779 -59.51362,33.8986 0,0.50133 1.45027,3.70065 1.52043,4.19499 1.94378,-13.68584 23.13805,-35.10706 57.9928,-35.10706 34.85475,0 57.92956,22.15804 59.87356,35.84388 0.0702,-0.49433 5.51852,-12.29001 5.51852,-12.79133 0,-14.38081 -29.27775,-26.03908 -65.39175,-26.03908 z"
         fill="#f6f6f6"
         opacity="0.3"
         id="path32"
         style="stroke-width:0.63102" /></g></g></svg>
