<?xml version="1.0" encoding="UTF-8" standalone="no"?>
<svg
   id="svg4379"
   height="128"
   width="128"
   version="1.1"
   xml:space="preserve"
   xmlns:xlink="http://www.w3.org/1999/xlink"
   xmlns="http://www.w3.org/2000/svg"
   xmlns:svg="http://www.w3.org/2000/svg"
   xmlns:rdf="http://www.w3.org/1999/02/22-rdf-syntax-ns#"
   xmlns:cc="http://creativecommons.org/ns#"
   xmlns:dc="http://purl.org/dc/elements/1.1/"><defs
     id="defs4381"><linearGradient
       id="linearGradient880"><stop
         style="stop-color:#cbcbcb;stop-opacity:1;"
         offset="0"
         id="stop876" /><stop
         style="stop-color:#a7a7a7;stop-opacity:1;"
         offset="1"
         id="stop878" /></linearGradient><linearGradient
       gradientTransform="matrix(2.7297298,0,0,2.7297298,-1.5135124,1.486514)"
       gradientUnits="userSpaceOnUse"
       xlink:href="#linearGradient3924-776"
       id="linearGradient3159"
       y2="43"
       x2="23.99999"
       y1="4.999989"
       x1="23.99999" /><linearGradient
       id="linearGradient3924-776"><stop
         offset="0"
         style="stop-color:#ffffff;stop-opacity:1"
         id="stop3124" /><stop
         offset="0.06316455"
         style="stop-color:#ffffff;stop-opacity:0.23529412"
         id="stop3126" /><stop
         offset="0.95056331"
         style="stop-color:#ffffff;stop-opacity:0.15686275"
         id="stop3128" /><stop
         offset="1"
         style="stop-color:#ffffff;stop-opacity:0.39215687"
         id="stop3130" /></linearGradient><radialGradient
       gradientTransform="matrix(2.003784,0,0,1.4,27.98813,-17.4)"
       gradientUnits="userSpaceOnUse"
       xlink:href="#linearGradient3688-166-749-5"
       id="radialGradient2455-1"
       fy="43.5"
       fx="4.9929786"
       r="2.5"
       cy="43.5"
       cx="4.9929786" /><linearGradient
       id="linearGradient3688-166-749-5"><stop
         offset="0"
         style="stop-color:#181818;stop-opacity:1"
         id="stop2883-0" /><stop
         offset="1"
         style="stop-color:#181818;stop-opacity:0"
         id="stop2885-5" /></linearGradient><radialGradient
       gradientTransform="matrix(2.003784,0,0,1.4,-20.01187,-104.4)"
       gradientUnits="userSpaceOnUse"
       xlink:href="#linearGradient3688-464-309-8"
       id="radialGradient2457-5"
       fy="43.5"
       fx="4.9929786"
       r="2.5"
       cy="43.5"
       cx="4.9929786" /><linearGradient
       id="linearGradient3688-464-309-8"><stop
         offset="0"
         style="stop-color:#181818;stop-opacity:1"
         id="stop2889-9" /><stop
         offset="1"
         style="stop-color:#181818;stop-opacity:0"
         id="stop2891-4" /></linearGradient><linearGradient
       gradientUnits="userSpaceOnUse"
       xlink:href="#linearGradient3702-501-757-0"
       id="linearGradient2459-7"
       y2="39.999443"
       x2="25.058096"
       y1="47.027729"
       x1="25.058096" /><linearGradient
       id="linearGradient3702-501-757-0"><stop
         offset="0"
         style="stop-color:#181818;stop-opacity:0"
         id="stop2895-0" /><stop
         offset="0.5"
         style="stop-color:#181818;stop-opacity:1"
         id="stop2897-2" /><stop
         offset="1"
         style="stop-color:#181818;stop-opacity:0"
         id="stop2899-6" /></linearGradient><linearGradient
       id="linearGradient3811"><stop
         offset="0"
         style="stop-color:#000000;stop-opacity:1"
         id="stop3813" /><stop
         offset="1"
         style="stop-color:#000000;stop-opacity:0"
         id="stop3815" /></linearGradient><radialGradient
       gradientTransform="matrix(1.5563924,0,0,0.16978827,70.270358,102.13029)"
       gradientUnits="userSpaceOnUse"
       xlink:href="#linearGradient3811"
       id="radialGradient4377"
       fy="93.467628"
       fx="-4.0287771"
       r="35.338131"
       cy="93.467628"
       cx="-4.0287771" /><linearGradient
       xlink:href="#linearGradient880"
       id="linearGradient882"
       x1="62.871635"
       y1="15.90732"
       x2="62.871635"
       y2="118.42699"
       gradientUnits="userSpaceOnUse" /><linearGradient
       id="linearGradient7276"><stop
         style="stop-color:#206b00;stop-opacity:1"
         offset="0"
         id="stop7272" /><stop
         style="stop-color:#002e99;stop-opacity:1"
         offset="1"
         id="stop7274" /></linearGradient><linearGradient
       id="linearGradient4270"><stop
         id="stop4272"
         style="stop-color:#ffffff;stop-opacity:1"
         offset="0" /><stop
         id="stop4274"
         style="stop-color:#ffffff;stop-opacity:0.23529412"
         offset="0.0348749" /><stop
         id="stop4276"
         style="stop-color:#ffffff;stop-opacity:0.15686275"
         offset="0.96216321" /><stop
         id="stop4278"
         style="stop-color:#ffffff;stop-opacity:0.39215687"
         offset="1" /></linearGradient><linearGradient
       y2="42.091705"
       x2="23.99999"
       y1="5.9093657"
       x1="23.99999"
       gradientTransform="matrix(1.4324324,0,0,1.4362832,-2.3783747,-2.4707827)"
       gradientUnits="userSpaceOnUse"
       id="linearGradient3904-5"
       xlink:href="#linearGradient4270" /><radialGradient
       cx="4.9929786"
       cy="43.5"
       r="2.5"
       fx="4.9929786"
       fy="43.5"
       id="radialGradient3337-2-2-4"
       xlink:href="#linearGradient3688-166-749-5"
       gradientUnits="userSpaceOnUse"
       gradientTransform="matrix(2.4045407,0,0,0.99999998,41.985755,15.500001)" /><radialGradient
       cx="4.9929786"
       cy="43.5"
       r="2.5"
       fx="4.9929786"
       fy="43.5"
       id="radialGradient3339-1-4-2"
       xlink:href="#linearGradient3688-166-749-5"
       gradientUnits="userSpaceOnUse"
       gradientTransform="matrix(2.4045407,0,0,0.99999998,-22.014244,-102.5)" /><linearGradient
       x1="25.058096"
       y1="47.027729"
       x2="25.058096"
       y2="39.999443"
       id="linearGradient6394-3"
       xlink:href="#linearGradient3702-501-757-0"
       gradientUnits="userSpaceOnUse"
       gradientTransform="matrix(1.5714286,0,0,0.7142857,-5.7142853,27.928572)" /><linearGradient
       xlink:href="#linearGradient854-2"
       id="linearGradient899-2"
       x1="11.582137"
       y1="7.7737918"
       x2="49.683403"
       y2="56.373577"
       gradientUnits="userSpaceOnUse"
       gradientTransform="translate(-3.6096022,-4)" /><linearGradient
       id="linearGradient1308"><stop
         style="stop-color:#363636;stop-opacity:1;"
         offset="0"
         id="stop1304" /><stop
         style="stop-color:#181312;stop-opacity:1;"
         offset="1"
         id="stop1306" /></linearGradient><linearGradient
       id="linearGradient854-2"><stop
         style="stop-color:#7064ff;stop-opacity:1;"
         offset="0"
         id="stop850-1" /><stop
         style="stop-color:#e67536;stop-opacity:1;"
         offset="1"
         id="stop852-6" /></linearGradient><linearGradient
       xlink:href="#linearGradient1308"
       id="linearGradient1202-8"
       gradientUnits="userSpaceOnUse"
       gradientTransform="translate(-66.628688,2.4442062)"
       x1="71.033745"
       y1="1.8683437"
       x2="126.65769"
       y2="57.49229" /><linearGradient
       xlink:href="#linearGradient7276"
       id="linearGradient1217-5"
       x1="9.5805931"
       y1="10.073647"
       x2="55.145584"
       y2="55.638638"
       gradientUnits="userSpaceOnUse" /><linearGradient
       xlink:href="#linearGradient7276"
       id="linearGradient1064-7"
       gradientUnits="userSpaceOnUse"
       x1="9.5805931"
       y1="10.073647"
       x2="55.145584"
       y2="55.638638"
       gradientTransform="translate(0,-1)" /><radialGradient
       id="g"
       cx="240.61284"
       cy="36.806652"
       r="170.02094"
       gradientTransform="scale(0.99822767,1.0017755)"
       fx="240.61284"
       fy="36.806652"
       gradientUnits="userSpaceOnUse"><stop
         offset=".1"
         stop-color="#ffe226"
         id="stop1" /><stop
         offset=".79"
         stop-color="#ff7139"
         id="stop2" /></radialGradient><radialGradient
       id="c"
       cx="226.56297"
       cy="290.17783"
       r="554.14581"
       gradientTransform="scale(1.1087373,0.9019269)"
       fx="226.56297"
       fy="290.17783"
       gradientUnits="userSpaceOnUse"><stop
         offset=".3"
         stop-color="#960e18"
         id="stop3" /><stop
         offset=".35"
         stop-color="#b11927"
         stop-opacity=".74"
         id="stop4" /><stop
         offset=".43"
         stop-color="#db293d"
         stop-opacity=".34"
         id="stop5" /><stop
         offset=".5"
         stop-color="#f5334b"
         stop-opacity=".09"
         id="stop6" /><stop
         offset=".53"
         stop-color="#ff3750"
         stop-opacity="0"
         id="stop7" /></radialGradient><radialGradient
       id="d"
       cx="395.44366"
       cy="-17.973478"
       r="210.2099"
       gradientTransform="scale(0.76747288,1.3029776)"
       fx="395.44366"
       fy="-17.973478"
       gradientUnits="userSpaceOnUse"><stop
         offset=".13"
         stop-color="#fff44f"
         id="stop8" /><stop
         offset=".53"
         stop-color="#ff980e"
         id="stop9" /></radialGradient><radialGradient
       id="e"
       cx="206.27052"
       cy="373.24011"
       r="223.4966"
       gradientTransform="scale(0.95519576,1.0469058)"
       fx="206.27052"
       fy="373.24011"
       gradientUnits="userSpaceOnUse"><stop
         offset=".35"
         stop-color="#3a8ee6"
         id="stop10" /><stop
         offset=".67"
         stop-color="#9059ff"
         id="stop11" /><stop
         offset="1"
         stop-color="#c139e6"
         id="stop12" /></radialGradient><radialGradient
       id="f"
       cx="271.62091"
       cy="200.9019"
       r="131.86298"
       gradientTransform="scale(0.95519576,1.0469058)"
       fx="271.62091"
       fy="200.9019"
       gradientUnits="userSpaceOnUse"><stop
         offset=".21"
         stop-color="#9059ff"
         stop-opacity="0"
         id="stop13" /><stop
         offset=".97"
         stop-color="#6e008b"
         stop-opacity=".6"
         id="stop14" /></radialGradient><radialGradient
       id="b"
       cx="392.80673"
       cy="61.159756"
       r="554.14581"
       gradientTransform="scale(1.1087373,0.9019269)"
       fx="392.80673"
       fy="61.159756"
       gradientUnits="userSpaceOnUse"><stop
         offset=".13"
         stop-color="#ffbd4f"
         id="stop15-9" /><stop
         offset=".28"
         stop-color="#ff980e"
         id="stop16-4" /><stop
         offset=".47"
         stop-color="#ff3750"
         id="stop17" /><stop
         offset=".78"
         stop-color="#eb0878"
         id="stop18" /><stop
         offset=".86"
         stop-color="#e50080"
         id="stop19" /></radialGradient><radialGradient
       id="h"
       cx="362.07501"
       cy="-81.709213"
       r="742.3869"
       gradientTransform="scale(1.0914501,0.91621229)"
       fx="362.07501"
       fy="-81.709213"
       gradientUnits="userSpaceOnUse"><stop
         offset=".11"
         stop-color="#fff44f"
         id="stop20" /><stop
         offset=".46"
         stop-color="#ff980e"
         id="stop21" /><stop
         offset=".72"
         stop-color="#ff3647"
         id="stop22" /><stop
         offset=".9"
         stop-color="#e31587"
         id="stop23" /></radialGradient><radialGradient
       id="i"
       cx="475.58807"
       cy="-41.588268"
       r="779.90863"
       gradientTransform="scale(0.68818401,1.4530997)"
       fx="475.58807"
       fy="-41.588268"
       gradientUnits="userSpaceOnUse"><stop
         offset="0"
         stop-color="#fff44f"
         id="stop24" /><stop
         offset=".3"
         stop-color="#ff980e"
         id="stop25" /><stop
         offset=".57"
         stop-color="#ff3647"
         id="stop26" /><stop
         offset=".74"
         stop-color="#e31587"
         id="stop27" /></radialGradient><radialGradient
       id="j"
       cx="239.79736"
       cy="99.006172"
       r="461.1138"
       gradientTransform="scale(1.008901,0.9911775)"
       fx="239.79736"
       fy="99.006172"
       gradientUnits="userSpaceOnUse"><stop
         offset=".14"
         stop-color="#fff44f"
         id="stop28" /><stop
         offset=".48"
         stop-color="#ff980e"
         id="stop29" /><stop
         offset=".66"
         stop-color="#ff3647"
         id="stop30" /><stop
         offset=".9"
         stop-color="#e31587"
         id="stop31" /></radialGradient><radialGradient
       id="k"
       cx="343.03802"
       cy="132.0125"
       r="528.89331"
       gradientTransform="scale(1.0572577,0.94584319)"
       fx="343.03802"
       fy="132.0125"
       gradientUnits="userSpaceOnUse"><stop
         offset=".09"
         stop-color="#fff44f"
         id="stop32" /><stop
         offset=".63"
         stop-color="#ff980e"
         id="stop33" /></radialGradient><linearGradient
       id="a"
       x1="441.98419"
       y1="75.63131"
       x2="62.126282"
       y2="454.26938"
       gradientTransform="scale(0.98374383,1.0165248)"
       gradientUnits="userSpaceOnUse"><stop
         offset=".05"
         stop-color="#fff44f"
         id="stop34" /><stop
         offset=".37"
         stop-color="#ff980e"
         id="stop35" /><stop
         offset=".53"
         stop-color="#ff3647"
         id="stop36" /><stop
         offset=".7"
         stop-color="#e31587"
         id="stop37" /></linearGradient><linearGradient
       id="l"
       x1="406.61136"
       y1="68.311989"
       x2="104.09252"
       y2="409.86551"
       gradientTransform="scale(0.98373973,1.016529)"
       gradientUnits="userSpaceOnUse"><stop
         offset=".17"
         stop-color="#fff44f"
         stop-opacity=".8"
         id="stop38" /><stop
         offset=".6"
         stop-color="#fff44f"
         stop-opacity="0"
         id="stop39" /></linearGradient><filter
       style="color-interpolation-filters:sRGB"
       id="filter18"
       x="-0.22167011"
       y="-0.22067449"
       width="1.4433402"
       height="1.441349"><feGaussianBlur
         stdDeviation="36.2027 35.2825"
         result="blur"
         id="feGaussianBlur18" /></filter><linearGradient
       xlink:href="#linearGradient7276"
       id="linearGradient14"
       gradientUnits="userSpaceOnUse"
       x1="9.5805931"
       y1="10.073647"
       x2="55.145584"
       y2="55.638638" /><linearGradient
       xlink:href="#linearGradient7276"
       id="linearGradient15"
       gradientUnits="userSpaceOnUse"
       gradientTransform="translate(0,-1)"
       x1="9.5805931"
       y1="10.073647"
       x2="55.145584"
       y2="55.638638" /></defs><metadata
     id="metadata4384"><rdf:RDF><cc:Work
         rdf:about=""><dc:format>image/svg+xml</dc:format><dc:type
           rdf:resource="http://purl.org/dc/dcmitype/StillImage" /><dc:title /></cc:Work></rdf:RDF></metadata><path
     d="M 119,118 A 55,6 0 0 1 9.0000016,118 55,6 0 1 1 119,118 Z"
     id="path3041"
     style="color:#000000;display:none;overflow:visible;visibility:visible;opacity:0.2;fill:url(#radialGradient4377);fill-opacity:1;fill-rule:nonzero;stroke:none;stroke-width:1;marker:none;enable-background:accumulate" /><g
     transform="matrix(2.6999989,0,0,0.55555607,-0.8000019,94.888882)"
     id="g2036"
     style="display:none"><g
       transform="matrix(1.052632,0,0,1.285713,-1.263158,-13.42854)"
       id="g3712"
       style="opacity:0.4"><rect
         width="5"
         height="7"
         x="38"
         y="40"
         id="rect2801"
         style="fill:url(#radialGradient2455-1);fill-opacity:1;stroke:none" /><rect
         width="5"
         height="7"
         x="-10"
         y="-47"
         transform="scale(-1)"
         id="rect3696"
         style="fill:url(#radialGradient2457-5);fill-opacity:1;stroke:none" /><rect
         width="28"
         height="7.0000005"
         x="10"
         y="40"
         id="rect3700"
         style="fill:url(#linearGradient2459-7);fill-opacity:1;stroke:none" /></g></g><rect
     width="103"
     height="103"
     rx="10"
     ry="10"
     x="12.5"
     y="15.5"
     id="rect5505-21-3"
     style="color:#000000;display:none;overflow:visible;visibility:visible;fill:url(#linearGradient882);fill-opacity:1;fill-rule:nonzero;stroke:none;stroke-width:1;marker:none;enable-background:accumulate" /><rect
     width="101"
     height="101"
     rx="9"
     ry="9"
     x="13.5"
     y="16.5"
     id="rect6741-7"
     style="display:none;opacity:0.3;fill:none;stroke:url(#linearGradient3159);stroke-width:1;stroke-linecap:round;stroke-linejoin:round;stroke-miterlimit:4;stroke-dasharray:none;stroke-dashoffset:0;stroke-opacity:1" /><rect
     width="103"
     height="103"
     rx="10"
     ry="10"
     x="12.5"
     y="15.5"
     id="rect5505-21-6"
     style="color:#000000;display:none;overflow:visible;visibility:visible;opacity:0.5;fill:none;stroke:#767676;stroke-width:1;stroke-linecap:round;stroke-linejoin:round;stroke-miterlimit:4;stroke-dasharray:none;stroke-dashoffset:0;stroke-opacity:1;marker:none;enable-background:accumulate" /><g
     id="g14"
     transform="matrix(1.8737409,0,0,1.8737409,10.910872,14.486671)"><g
       id="g866"
       style="display:inline"
       transform="translate(-3.6096022,-4)"><rect
         style="opacity:0.6;fill:url(#radialGradient3337-2-2-4);fill-opacity:1;stroke:none;stroke-width:1.06199"
         id="rect2801-5-5-7-9"
         y="56.5"
         x="54"
         height="5"
         width="6" /><rect
         style="opacity:0.6;fill:url(#radialGradient3339-1-4-2);fill-opacity:1;stroke:none;stroke-width:1.06199"
         id="rect3696-3-0-3-7"
         transform="scale(-1)"
         y="-61.5"
         x="-10"
         height="5"
         width="6" /><rect
         style="opacity:0.6;fill:url(#linearGradient6394-3);fill-opacity:1;stroke:none;stroke-width:1.06199"
         id="rect3700-5-6-8-4"
         y="56.5"
         x="10"
         height="5.0000005"
         width="44" /></g><rect
       width="55"
       height="55"
       rx="6"
       ry="6"
       x="0.89039779"
       y="0.5"
       id="rect5505-21-3-8-5-2-9"
       style="color:#000000;display:inline;overflow:visible;visibility:visible;fill:url(#linearGradient899-2);fill-opacity:1;fill-rule:nonzero;stroke:none;stroke-width:1;marker:none;enable-background:accumulate" /><path
       id="rect532"
       style="font-variation-settings:normal;display:none;fill:#ab5eda;fill-opacity:1;stroke:none;stroke-width:1;stroke-linecap:butt;stroke-linejoin:miter;stroke-miterlimit:4;stroke-dasharray:none;stroke-dashoffset:0;stroke-opacity:0.5;marker:none;stop-color:#000000"
       d="M 6.5314238,0.5 C 3.406298,0.5 0.89039779,3.0159003 0.89039779,6.141026 v 7.75641 H 14.287834 V 0.5 Z" /><path
       id="rect532-3"
       style="font-variation-settings:normal;display:none;opacity:0.8;fill:#ab5eda;fill-opacity:1;stroke:none;stroke-width:1;stroke-linecap:butt;stroke-linejoin:miter;stroke-miterlimit:4;stroke-dasharray:none;stroke-dashoffset:0;stroke-opacity:0.5;marker:none;stop-color:#000000"
       d="M 14.287834,0.5 V 13.897436 H 28.390398 V 0.5 Z" /><path
       id="rect532-6"
       style="font-variation-settings:normal;display:none;opacity:0.6;fill:#ab5eda;fill-opacity:1;stroke:none;stroke-width:1;stroke-linecap:butt;stroke-linejoin:miter;stroke-miterlimit:4;stroke-dasharray:none;stroke-dashoffset:0;stroke-opacity:0.5;marker:none;stop-color:#000000"
       d="M 28.390398,0.5 V 13.897436 H 42.492962 V 0.5 Z" /><path
       id="rect532-3-7"
       style="font-variation-settings:normal;display:none;opacity:0.4;fill:#ab5eda;fill-opacity:1;stroke:none;stroke-width:1;stroke-linecap:butt;stroke-linejoin:miter;stroke-miterlimit:4;stroke-dasharray:none;stroke-dashoffset:0;stroke-opacity:0.5;marker:none;stop-color:#000000"
       d="M 42.492962,0.5 V 13.897436 H 55.890398 V 6.141026 C 55.890398,3.0159003 53.374495,0.5 50.249373,0.5 Z" /><path
       id="rect532-5"
       style="font-variation-settings:normal;display:none;opacity:0.8;fill:#ab5eda;fill-opacity:1;stroke:none;stroke-width:1;stroke-linecap:butt;stroke-linejoin:miter;stroke-miterlimit:4;stroke-dasharray:none;stroke-dashoffset:0;stroke-opacity:0.5;marker:none;stop-color:#000000"
       d="M 0.89039779,13.897436 V 28 H 14.287834 V 13.897436 Z" /><rect
       style="font-variation-settings:normal;display:none;opacity:0.6;fill:#ab5eda;fill-opacity:1;stroke:none;stroke-width:1;stroke-linecap:butt;stroke-linejoin:miter;stroke-miterlimit:4;stroke-dasharray:none;stroke-dashoffset:0;stroke-opacity:0.5;marker:none;stop-color:#000000"
       id="rect532-3-3"
       width="14.102564"
       height="14.102564"
       x="14.287857"
       y="13.897432"
       rx="0"
       ry="0" /><rect
       style="font-variation-settings:normal;display:none;opacity:0.4;fill:#ab5eda;fill-opacity:1;stroke:none;stroke-width:1;stroke-linecap:butt;stroke-linejoin:miter;stroke-miterlimit:4;stroke-dasharray:none;stroke-dashoffset:0;stroke-opacity:0.5;marker:none;stop-color:#000000"
       id="rect532-6-5"
       width="14.102564"
       height="14.102564"
       x="28.390421"
       y="13.897432"
       rx="0"
       ry="0" /><path
       id="rect532-3-7-6"
       style="font-variation-settings:normal;display:none;opacity:0.2;fill:#ab5eda;fill-opacity:1;stroke:none;stroke-width:1;stroke-linecap:butt;stroke-linejoin:miter;stroke-miterlimit:4;stroke-dasharray:none;stroke-dashoffset:0;stroke-opacity:0.5;marker:none;stop-color:#000000"
       d="M 42.492962,13.897436 V 28 H 55.890398 V 13.897436 Z" /><path
       id="rect532-5-2"
       style="font-variation-settings:normal;display:none;opacity:0.6;fill:#ab5eda;fill-opacity:1;stroke:none;stroke-width:1;stroke-linecap:butt;stroke-linejoin:miter;stroke-miterlimit:4;stroke-dasharray:none;stroke-dashoffset:0;stroke-opacity:0.5;marker:none;stop-color:#000000"
       d="M 0.89039779,28 V 42.102565 H 14.287834 V 28 Z" /><rect
       style="font-variation-settings:normal;display:none;opacity:0.4;fill:#ab5eda;fill-opacity:1;stroke:none;stroke-width:1;stroke-linecap:butt;stroke-linejoin:miter;stroke-miterlimit:4;stroke-dasharray:none;stroke-dashoffset:0;stroke-opacity:0.5;marker:none;stop-color:#000000"
       id="rect532-3-3-9"
       width="14.102564"
       height="14.102564"
       x="14.287857"
       y="27.999996"
       rx="0"
       ry="0" /><rect
       style="font-variation-settings:normal;display:none;opacity:0.2;fill:#ab5eda;fill-opacity:1;stroke:none;stroke-width:1;stroke-linecap:butt;stroke-linejoin:miter;stroke-miterlimit:4;stroke-dasharray:none;stroke-dashoffset:0;stroke-opacity:0.5;marker:none;stop-color:#000000"
       id="rect532-6-5-1"
       width="14.102564"
       height="14.102564"
       x="28.390421"
       y="27.999996"
       rx="0"
       ry="0" /><path
       id="rect532-5-2-7"
       style="font-variation-settings:normal;display:none;opacity:0.4;fill:#ab5eda;fill-opacity:1;stroke:none;stroke-width:1;stroke-linecap:butt;stroke-linejoin:miter;stroke-miterlimit:4;stroke-dasharray:none;stroke-dashoffset:0;stroke-opacity:0.5;marker:none;stop-color:#000000"
       d="m 0.89039779,42.102565 v 7.75641 c 0,3.125127 2.51590021,5.641024 5.64102601,5.641024 H 14.287834 V 42.102565 Z" /><path
       id="rect532-3-3-9-0"
       style="font-variation-settings:normal;display:none;opacity:0.2;fill:#ab5eda;fill-opacity:1;stroke:none;stroke-width:1;stroke-linecap:butt;stroke-linejoin:miter;stroke-miterlimit:4;stroke-dasharray:none;stroke-dashoffset:0;stroke-opacity:0.5;marker:none;stop-color:#000000"
       d="M 14.287834,42.102565 V 55.499999 H 28.390398 V 42.102565 Z" /><g
       id="g1"
       style="display:none"
       transform="translate(-3.6096022,-4)"><path
         id="path918-0-2"
         style="font-variation-settings:normal;display:inline;opacity:0.07;vector-effect:none;fill:url(#linearGradient14);fill-opacity:1;stroke:none;stroke-width:1;stroke-linecap:butt;stroke-linejoin:miter;stroke-miterlimit:4;stroke-dasharray:none;stroke-dashoffset:0;stroke-opacity:0.5;-inkscape-stroke:none;marker:none;stop-color:#000000"
         d="m 31.019531,9.8007812 c -0.638021,3.1438798 -1.276041,6.2877608 -1.914062,9.4316408 -1.925567,0.396694 -3.766868,1.223802 -5.341797,2.40039 -2.521296,-1.478186 -5.042656,-2.956263 -7.564453,-4.433593 1.47733,2.521797 2.955407,5.043157 4.433593,7.564453 -1.174981,1.575715 -2.00535,3.41557 -2.40039,5.341797 -3.267731,0.69105 -6.562758,1.27598 -9.8133819,2.033535 C 7.5020163,32.426003 6.5849925,32.713001 5.6679688,33 c 1.863689,0.615567 3.7396761,1.183323 5.6808712,1.497573 2.294527,0.465653 4.589055,0.931306 6.883582,1.396958 0.396694,1.925567 1.223802,3.766868 2.40039,5.341797 -1.478186,2.521296 -2.956263,5.042656 -4.433593,7.564453 2.521797,-1.47733 5.043157,-2.955407 7.564453,-4.433593 1.575715,1.174981 3.41557,2.00535 5.341797,2.40039 0.69105,3.267731 1.27598,6.562758 2.033535,9.813382 0.286999,0.917024 0.573997,1.834047 0.860996,2.751071 0.615567,-1.863689 1.183323,-3.739676 1.497573,-5.680871 0.465653,-2.294527 0.931306,-4.589055 1.396958,-6.883582 1.925567,-0.396694 3.766868,-1.223802 5.341797,-2.40039 2.521296,1.478186 5.042656,2.956263 7.564453,4.433593 -1.47733,-2.521797 -2.955407,-5.043157 -4.433593,-7.564453 1.174981,-1.575715 2.00535,-3.41557 2.40039,-5.341797 3.267731,-0.69105 6.562758,-1.27598 9.813382,-2.033535 C 56.497984,33.573997 57.415007,33.286999 58.332031,33 56.46834,32.384446 54.592354,31.816682 52.651182,31.502316 50.360554,31.037352 48.069925,30.572387 45.779297,30.107422 45.384338,28.176245 44.554036,26.33115 43.375,24.751953 44.849956,22.235229 46.324793,19.718435 47.798828,17.201172 45.281565,18.675208 42.764771,20.150044 40.248047,21.625 38.668078,20.447541 36.824402,19.61404 34.892578,19.220703 34.202115,15.956896 33.61796,12.66574 32.860996,9.4190401 32.573997,8.5020163 32.286999,7.5849925 32,6.6679688 31.673177,7.7122396 31.346354,8.7565104 31.019531,9.8007812 Z m 1.414063,14.2109378 c 3.909881,0.127304 7.491037,3.104595 8.324599,6.927223 0.86639,3.546862 -0.690253,7.513746 -3.744456,9.516873 -3.102386,2.145351 -7.567811,2.012875 -10.509783,-0.360825 -2.849656,-2.126824 -4.13579,-6.043906 -3.175916,-9.459236 0.938784,-3.575685 4.278376,-6.373061 7.981375,-6.582799 0.374701,-0.02523 0.748255,-0.06845 1.124181,-0.04124 z" /><path
         id="path918-0"
         style="font-variation-settings:normal;display:inline;opacity:0.15;vector-effect:none;fill:url(#linearGradient1217-5);fill-opacity:1;stroke:none;stroke-width:1;stroke-linecap:butt;stroke-linejoin:miter;stroke-miterlimit:4;stroke-dasharray:none;stroke-dashoffset:0;stroke-opacity:0.5;-inkscape-stroke:none;marker:none;stop-color:#000000"
         d="m 32.000001,10 -2.042969,10.0625 a 13.110333,13.110333 0 0 0 -6.142579,2.759765 L 19,20 21.822266,24.814453 A 13.110333,13.110333 0 0 0 19.0625,30.957031 L 9,33 19.0625,35.042968 a 13.110333,13.110333 0 0 0 2.759766,6.142578 L 19,46 23.814453,43.177734 A 13.110333,13.110333 0 0 0 29.957032,45.9375 L 32.000001,56 34.042968,45.9375 a 13.110333,13.110333 0 0 0 6.142579,-2.759766 L 45,46 42.177734,41.185546 A 13.110333,13.110333 0 0 0 44.9375,35.042968 L 55,33 44.949219,30.958984 a 13.110333,13.110333 0 0 0 -2.763672,-6.15625 L 45,20 40.197266,22.814453 a 13.110333,13.110333 0 0 0 -6.15625,-2.763672 z m 0,12.999999 A 10,10 0 0 1 41.999999,33 10,10 0 0 1 32.000001,43 10,10 0 0 1 22,33 10,10 0 0 1 32.000001,22.999999 Z" /><path
         id="path918"
         style="font-variation-settings:normal;display:inline;opacity:1;vector-effect:none;fill:#fafafa;fill-opacity:1;stroke:none;stroke-width:0.707893;stroke-linecap:butt;stroke-linejoin:miter;stroke-miterlimit:4;stroke-dasharray:none;stroke-dashoffset:0;stroke-opacity:0.5;-inkscape-stroke:none;marker:none;stop-color:#000000;stop-opacity:1"
         d="m 47.410313,14.949072 -1.446204,7.123176 a 9.280717,9.280717 0 0 0 -4.34829,1.953619 l -3.408119,-1.997862 1.997863,3.408119 a 9.280717,9.280717 0 0 0 -1.95362,4.348289 l -7.123176,1.446204 7.123176,1.446204 a 9.280717,9.280717 0 0 0 1.95362,4.34829 L 38.2077,40.43323 41.615819,38.435367 a 9.280717,9.280717 0 0 0 4.34829,1.95362 l 1.446204,7.123176 1.446203,-7.123176 a 9.280717,9.280717 0 0 0 4.34829,-1.95362 l 3.408119,1.997863 -1.997863,-3.408119 a 9.280717,9.280717 0 0 0 1.95362,-4.34829 l 7.123176,-1.446204 -7.11488,-1.444821 a 9.280717,9.280717 0 0 0 -1.956385,-4.357968 l 1.992332,-3.399823 -3.399823,1.992332 a 9.280717,9.280717 0 0 0 -4.357968,-1.956385 z m 0,9.202612 a 7.0789329,7.0789329 0 0 1 7.078932,7.078933 7.0789329,7.0789329 0 0 1 -7.078932,7.078933 7.0789329,7.0789329 0 0 1 -7.078933,-7.078933 7.0789329,7.0789329 0 0 1 7.078933,-7.078933 z"
         transform="matrix(1.4126423,0,0,1.4126423,-34.973813,-12.117691)" /><path
         id="path918-0-3"
         style="font-variation-settings:normal;display:inline;opacity:0.15;vector-effect:none;fill:url(#linearGradient15);fill-opacity:1;stroke:none;stroke-width:1;stroke-linecap:butt;stroke-linejoin:miter;stroke-miterlimit:4;stroke-dasharray:none;stroke-dashoffset:0;stroke-opacity:0.5;-inkscape-stroke:none;marker:none;stop-color:#000000"
         d="m 19,19 2.507812,4.279297 a 13.110333,13.110333 0 0 1 0.314454,-0.464844 l -1.929688,-3.291015 z m 26,0 -0.892578,0.523438 -1.921875,3.279296 A 13.110333,13.110333 0 0 1 42.5,23.265625 Z M 32,21 A 10,10 0 0 0 22,31 10,10 0 0 0 22.056641,31.5 10,10 0 0 1 32,22 10,10 0 0 1 41.972656,31.248047 10,10 0 0 0 42,31 10,10 0 0 0 32,21 Z M 11.462891,31.5 9,32 19.0625,34.042969 a 13.110333,13.110333 0 0 0 2.445312,5.677734 l 0.314454,-0.535156 A 13.110333,13.110333 0 0 1 19.0625,33.042969 Z m 41.074218,0 -7.599609,1.542969 a 13.110333,13.110333 0 0 1 -2.759766,6.142578 l 0.314454,0.535156 A 13.110333,13.110333 0 0 0 44.9375,34.042969 L 55,32 Z M 23.814453,41.177734 19.892578,43.476562 19,45 23.814453,42.177734 A 13.110333,13.110333 0 0 0 29.957031,44.9375 L 32,55 34.042969,44.9375 a 13.110333,13.110333 0 0 0 6.142578,-2.759766 L 45,45 44.107422,43.476562 40.185547,41.177734 A 13.110333,13.110333 0 0 1 34.042969,43.9375 L 32,54 29.957031,43.9375 a 13.110333,13.110333 0 0 1 -6.142578,-2.759766 z" /><path
         id="path918-0-3-2"
         style="font-variation-settings:normal;display:inline;opacity:0.05;vector-effect:none;fill:url(#linearGradient1064-7);fill-opacity:1;stroke:none;stroke-width:1;stroke-linecap:butt;stroke-linejoin:miter;stroke-miterlimit:4;stroke-dasharray:none;stroke-dashoffset:0;stroke-opacity:0.5;-inkscape-stroke:none;marker:none;stop-color:#000000"
         d="m 19,19 2.822266,4.814453 a 13.110333,13.110333 0 0 0 -0.621094,0.917969 c 0.08234,0.140442 0.163743,0.281437 0.246094,0.421875 0.518762,-0.767657 1.038162,-1.534886 1.55664,-2.302735 -0.459857,-0.74709 -0.891195,-1.523146 -1.333984,-2.287109 z m 26,0 -2.658203,1.556641 c -0.44638,0.76137 -0.892715,1.52308 -1.337891,2.285156 0.516714,0.766883 1.038707,1.530191 1.558594,2.294922 0.08163,-0.139176 0.162516,-0.278789 0.244141,-0.417969 a 13.110333,13.110333 0 0 0 -0.621094,-0.916016 z m -13.070312,1.001953 c -3.020863,0.03581 -6.003156,1.33621 -8.033204,3.582031 -1.921967,2.097151 -3.017449,4.980048 -2.857422,7.828125 0.23178,0.938655 0.685998,1.822207 1.001954,2.740235 0.04809,-0.131262 0.10409,-0.260413 0.15625,-0.390625 A 10,10 0 0 1 22,32 10,10 0 0 1 32,22 10,10 0 0 1 42,32 10,10 0 0 1 41.832031,33.492188 l 0.195313,0.482421 c 0.345238,-1.24131 1.15861,-2.418732 0.943359,-3.751953 -0.253718,-4.485781 -3.559245,-8.583639 -7.890625,-9.779297 -1.019848,-0.302091 -2.08724,-0.448205 -3.15039,-0.441406 z M 13.984375,30.988281 9,32 19.0625,34.042969 a 13.110333,13.110333 0 0 0 2.759766,6.142578 l -0.560547,0.955078 c 0.19658,0.270641 -0.03521,0.44129 -0.347657,0.59375 L 19,45 23.814453,42.177734 A 13.110333,13.110333 0 0 0 29.957031,44.9375 L 32,55 34.042969,44.9375 a 13.110333,13.110333 0 0 0 6.142578,-2.759766 L 45,45 43.072266,41.708984 c -0.167163,-0.09792 -0.33488,-0.194897 -0.501954,-0.292968 0.05911,-0.08668 0.116651,-0.174887 0.175782,-0.261719 l -0.56836,-0.96875 A 13.110333,13.110333 0 0 0 44.9375,34.042969 L 55,32 50.013672,30.988281 c -1.610201,0.323135 -3.21974,0.676166 -4.830078,0.984375 -0.558049,0.126597 -1.300177,0.06479 -1.220703,0.845703 -0.369621,2.148582 -1.304611,4.167431 -2.660157,5.871094 -0.63516,0.47567 0.115593,1.008429 0.31836,1.519531 0.231259,0.439158 0.950638,1.367431 0.0625,0.6875 -0.516748,-0.302785 -1.033351,-0.606584 -1.550782,-0.908203 -1.691892,1.301706 -3.569715,2.441089 -5.697265,2.832031 -0.490766,0.217444 -1.415516,0.01135 -1.34375,0.777344 -0.364114,1.791062 -0.72797,3.581926 -1.091797,5.373047 -0.397333,-1.954385 -0.79281,-3.909154 -1.191406,-5.863281 -2.127569,-0.401194 -4.250777,-1.073315 -5.972656,-2.431641 -0.488626,-0.282837 -0.958169,-0.991319 -1.486329,-0.384765 -0.516815,0.302668 -1.034027,0.605428 -1.550781,0.908203 0.403665,-0.688522 0.807081,-1.377193 1.212891,-2.064453 -1.299939,-1.693779 -2.441576,-3.570721 -2.832031,-5.699219 -0.217444,-0.490766 -0.01135,-1.415516 -0.777344,-1.34375 -1.806397,-0.348425 -3.611617,-0.743593 -5.417969,-1.103516 z" /></g><g
       id="g2"
       style="display:inline"
       transform="translate(-3.6096022,-4)"><rect
         style="color:#000000;font-variation-settings:normal;display:inline;overflow:visible;visibility:visible;opacity:1;vector-effect:none;fill:none;fill-opacity:1;stroke:url(#linearGradient1202-8);stroke-width:1;stroke-linecap:butt;stroke-linejoin:miter;stroke-miterlimit:4;stroke-dasharray:none;stroke-dashoffset:0;stroke-opacity:0.5;-inkscape-stroke:none;marker:none;enable-background:accumulate;stop-color:#000000;stop-opacity:1"
         id="rect5505-21-9"
         y="4.5"
         x="4.5"
         ry="6"
         rx="6"
         height="55"
         width="55" /><rect
         style="display:inline;opacity:0.35;fill:none;stroke:url(#linearGradient3904-5);stroke-width:1;stroke-linecap:round;stroke-linejoin:round;stroke-miterlimit:4;stroke-dasharray:none;stroke-dashoffset:0;stroke-opacity:1"
         id="rect6741"
         y="5.428761"
         x="5.5"
         ry="5"
         rx="5"
         height="53.142479"
         width="53" /></g><g
       id="g17"
       transform="matrix(0.09528413,0,0,0.09528413,3.6190423,3.9570948)"
       style="stroke:none;stroke-opacity:1"><ellipse
         style="fill:#674683;fill-opacity:1;stroke:none;stroke-width:12.4388;stroke-opacity:1;filter:url(#filter18)"
         id="path17"
         cx="260.18826"
         cy="248.42352"
         rx="195.98151"
         ry="191.86179"
         transform="matrix(1.045773,0,0,1.0127692,-14.26374,19.192081)" /><path
         d="m 478.711,166.353 c -10.445,-25.124 -31.6,-52.248 -48.212,-60.821 13.52,26.505 21.345,53.093 24.335,72.936 0,0.039 0.015,0.136 0.047,0.4 C 427.706,111.135 381.627,83.823 344,24.355 c -1.9,-3.007 -3.805,-6.022 -5.661,-9.2 a 73.716,73.716 0 0 1 -2.646,-4.972 43.7,43.7 0 0 1 -3.593,-9.506 0.626,0.626 0 0 0 -0.546,-0.644 0.818,0.818 0 0 0 -0.451,0 c -0.034,0.012 -0.084,0.051 -0.12,0.065 -0.053,0.021 -0.12,0.069 -0.176,0.1 0.027,-0.036 0.083,-0.117 0.1,-0.136 -60.37,35.356 -80.85,100.761 -82.732,133.484 a 120.249,120.249 0 0 0 -66.142,25.488 71.355,71.355 0 0 0 -6.225,-4.7 111.338,111.338 0 0 1 -0.674,-58.732 c -24.688,11.241 -43.89,29.01 -57.85,44.7 h -0.111 c -9.527,-12.067 -8.855,-51.873 -8.312,-60.184 -0.114,-0.515 -7.107,3.63 -8.023,4.255 a 175.073,175.073 0 0 0 -23.486,20.12 210.478,210.478 0 0 0 -22.442,26.913 c 0,0.012 -0.007,0.026 -0.011,0.038 0,-0.013 0.007,-0.026 0.011,-0.038 a 202.838,202.838 0 0 0 -32.247,72.805 c -0.115,0.521 -0.212,1.061 -0.324,1.586 -0.452,2.116 -2.08,12.7 -2.365,15 -0.022,0.177 -0.032,0.347 -0.053,0.524 a 229.066,229.066 0 0 0 -3.9,33.157 c 0,0.41 -0.025,0.816 -0.025,1.227 C 16,388.418 123.6,496 256.324,496 c 118.865,0 217.56,-86.288 236.882,-199.63 0.407,-3.076 0.733,-6.168 1.092,-9.271 4.777,-41.21 -0.53,-84.525 -15.587,-120.746 z M 201.716,354.447 c 1.124,0.537 2.18,1.124 3.334,1.639 0.048,0.033 0.114,0.07 0.163,0.1 a 126.191,126.191 0 0 1 -3.497,-1.739 z m 55.053,-144.93 z m 198.131,-30.59 -0.032,-0.233 c 0.012,0.085 0.027,0.174 0.04,0.259 z"
         fill="url(#a)"
         id="path39"
         style="display:inline;fill:url(#a);stroke:none;stroke-opacity:1" /><path
         d="m 478.711,166.353 c -10.445,-25.124 -31.6,-52.248 -48.212,-60.821 13.52,26.505 21.345,53.093 24.335,72.936 0,-0.058 0.011,0.048 0.036,0.226 0.012,0.085 0.027,0.174 0.04,0.259 22.675,61.47 10.322,123.978 -7.479,162.175 -27.539,59.1 -94.215,119.67 -198.576,116.716 C 136.1,454.651 36.766,370.988 18.223,261.41 c -3.379,-17.28 0,-26.054 1.7,-40.084 -2.071,10.816 -2.86,13.94 -3.9,33.157 0,0.41 -0.025,0.816 -0.025,1.227 C 16,388.418 123.6,496 256.324,496 c 118.865,0 217.56,-86.288 236.882,-199.63 0.407,-3.076 0.733,-6.168 1.092,-9.271 4.777,-41.21 -0.53,-84.525 -15.587,-120.746 z"
         fill="url(#b)"
         id="path40"
         style="display:inline;fill:url(#b);stroke:none;stroke-opacity:1" /><path
         d="m 478.711,166.353 c -10.445,-25.124 -31.6,-52.248 -48.212,-60.821 13.52,26.505 21.345,53.093 24.335,72.936 0,-0.058 0.011,0.048 0.036,0.226 0.012,0.085 0.027,0.174 0.04,0.259 22.675,61.47 10.322,123.978 -7.479,162.175 -27.539,59.1 -94.215,119.67 -198.576,116.716 C 136.1,454.651 36.766,370.988 18.223,261.41 c -3.379,-17.28 0,-26.054 1.7,-40.084 -2.071,10.816 -2.86,13.94 -3.9,33.157 0,0.41 -0.025,0.816 -0.025,1.227 C 16,388.418 123.6,496 256.324,496 c 118.865,0 217.56,-86.288 236.882,-199.63 0.407,-3.076 0.733,-6.168 1.092,-9.271 4.777,-41.21 -0.53,-84.525 -15.587,-120.746 z"
         fill="url(#c)"
         id="path41"
         style="display:inline;fill:url(#c);stroke:none;stroke-opacity:1" /><path
         d="m 361.922,194.6 c 0.524,0.368 1,0.734 1.493,1.1 a 130.706,130.706 0 0 0 -22.31,-29.112 C 266.4,91.892 321.516,4.626 330.811,0.194 c 0.027,-0.036 0.083,-0.117 0.1,-0.136 -60.37,35.356 -80.85,100.761 -82.732,133.484 2.8,-0.194 5.592,-0.429 8.442,-0.429 45.051,0 84.289,24.77 105.301,61.487 z"
         fill="url(#d)"
         id="path42"
         style="display:inline;fill:url(#d);stroke:none;stroke-opacity:1" /><path
         d="m 256.772,209.514 c -0.393,5.978 -21.514,26.593 -28.9,26.593 -68.339,0 -79.432,41.335 -79.432,41.335 3.027,34.81 27.261,63.475 56.611,78.643 1.339,0.692 2.694,1.317 4.05,1.935 a 132.768,132.768 0 0 0 7.059,2.886 106.743,106.743 0 0 0 31.271,6.031 c 119.78,5.618 142.986,-143.194 56.545,-186.408 22.137,-3.85 45.115,5.053 57.947,14.067 -21.012,-36.714 -60.25,-61.484 -105.3,-61.484 -2.85,0 -5.641,0.235 -8.442,0.429 a 120.249,120.249 0 0 0 -66.142,25.488 c 3.664,3.1 7.8,7.244 16.514,15.828 16.302,16.067 58.13,32.705 58.219,34.657 z"
         fill="url(#e)"
         id="path43"
         style="display:inline;fill:url(#e);stroke:none;stroke-opacity:1" /><path
         d="m 256.772,209.514 c -0.393,5.978 -21.514,26.593 -28.9,26.593 -68.339,0 -79.432,41.335 -79.432,41.335 3.027,34.81 27.261,63.475 56.611,78.643 1.339,0.692 2.694,1.317 4.05,1.935 a 132.768,132.768 0 0 0 7.059,2.886 106.743,106.743 0 0 0 31.271,6.031 c 119.78,5.618 142.986,-143.194 56.545,-186.408 22.137,-3.85 45.115,5.053 57.947,14.067 -21.012,-36.714 -60.25,-61.484 -105.3,-61.484 -2.85,0 -5.641,0.235 -8.442,0.429 a 120.249,120.249 0 0 0 -66.142,25.488 c 3.664,3.1 7.8,7.244 16.514,15.828 16.302,16.067 58.13,32.705 58.219,34.657 z"
         fill="url(#f)"
         id="path44"
         style="display:inline;fill:url(#f);stroke:none;stroke-opacity:1" /><path
         d="m 170.829,151.036 a 244.042,244.042 0 0 1 4.981,3.3 111.338,111.338 0 0 1 -0.674,-58.732 c -24.688,11.241 -43.89,29.01 -57.85,44.7 1.155,-0.033 36.014,-0.66 53.543,10.732 z"
         fill="url(#g)"
         id="path45"
         style="display:inline;fill:url(#g);stroke:none;stroke-opacity:1" /><path
         d="m 18.223,261.41 c 18.543,109.578 117.877,193.241 230.632,196.434 104.361,2.954 171.037,-57.62 198.576,-116.716 17.8,-38.2 30.154,-100.7 7.479,-162.175 l -0.008,-0.026 -0.032,-0.233 c -0.025,-0.178 -0.04,-0.284 -0.036,-0.226 0,0.039 0.015,0.136 0.047,0.4 8.524,55.661 -19.79,109.584 -64.051,146.044 l -0.133,0.313 c -86.245,70.223 -168.774,42.368 -185.484,30.966 a 144.108,144.108 0 0 1 -3.5,-1.743 c -50.282,-24.029 -71.054,-69.838 -66.6,-109.124 -42.457,0 -56.934,-35.809 -56.934,-35.809 0,0 38.119,-27.179 88.358,-3.541 46.53,21.893 90.228,3.543 90.233,3.541 -0.089,-1.952 -41.917,-18.59 -58.223,-34.656 -8.713,-8.584 -12.85,-12.723 -16.514,-15.828 a 71.355,71.355 0 0 0 -6.225,-4.7 282.929,282.929 0 0 0 -4.981,-3.3 c -17.528,-11.392 -52.388,-10.765 -53.543,-10.735 h -0.111 c -9.527,-12.067 -8.855,-51.873 -8.312,-60.184 -0.114,-0.515 -7.107,3.63 -8.023,4.255 a 175.073,175.073 0 0 0 -23.486,20.12 210.478,210.478 0 0 0 -22.442,26.919 c 0,0.012 -0.007,0.026 -0.011,0.038 0,-0.013 0.007,-0.026 0.011,-0.038 a 202.838,202.838 0 0 0 -32.247,72.805 c -0.115,0.521 -8.65,37.842 -4.44,57.199 z"
         fill="url(#h)"
         id="path46"
         style="display:inline;fill:url(#h);stroke:none;stroke-opacity:1" /><path
         d="m 341.105,166.587 a 130.706,130.706 0 0 1 22.31,29.112 c 1.323,0.994 2.559,1.985 3.608,2.952 54.482,50.2 25.936,121.2 23.807,126.26 44.261,-36.46 72.575,-90.383 64.051,-146.044 C 427.706,111.135 381.627,83.823 344,24.355 c -1.9,-3.007 -3.805,-6.022 -5.661,-9.2 a 73.716,73.716 0 0 1 -2.646,-4.972 43.7,43.7 0 0 1 -3.593,-9.506 0.626,0.626 0 0 0 -0.546,-0.644 0.818,0.818 0 0 0 -0.451,0 c -0.034,0.012 -0.084,0.051 -0.12,0.065 -0.053,0.021 -0.12,0.069 -0.176,0.1 -9.291,4.428 -64.407,91.694 10.298,166.389 z"
         fill="url(#i)"
         id="path47"
         style="display:inline;fill:url(#i);stroke:none;stroke-opacity:1" /><path
         d="m 367.023,198.651 c -1.049,-0.967 -2.285,-1.958 -3.608,-2.952 -0.489,-0.368 -0.969,-0.734 -1.493,-1.1 -12.832,-9.014 -35.81,-17.917 -57.947,-14.067 86.441,43.214 63.235,192.026 -56.545,186.408 a 106.743,106.743 0 0 1 -31.271,-6.031 134.51,134.51 0 0 1 -7.059,-2.886 c -1.356,-0.618 -2.711,-1.243 -4.05,-1.935 0.048,0.033 0.114,0.07 0.163,0.1 16.71,11.4 99.239,39.257 185.484,-30.966 l 0.133,-0.313 c 2.129,-5.054 30.675,-76.057 -23.807,-126.258 z"
         fill="url(#j)"
         id="path48"
         style="display:inline;fill:url(#j);stroke:none;stroke-opacity:1" /><path
         d="m 148.439,277.443 c 0,0 11.093,-41.335 79.432,-41.335 7.388,0 28.509,-20.615 28.9,-26.593 0.391,-5.978 -43.7,18.352 -90.233,-3.541 -50.239,-23.638 -88.358,3.541 -88.358,3.541 0,0 14.477,35.809 56.934,35.809 -4.453,39.286 16.319,85.1 66.6,109.124 1.124,0.537 2.18,1.124 3.334,1.639 -29.348,-15.169 -53.582,-43.834 -56.609,-78.644 z"
         fill="url(#k)"
         id="path49"
         style="display:inline;fill:url(#k);stroke:none;stroke-opacity:1" /><path
         d="m 478.711,166.353 c -10.445,-25.124 -31.6,-52.248 -48.212,-60.821 13.52,26.505 21.345,53.093 24.335,72.936 0,0.039 0.015,0.136 0.047,0.4 C 427.706,111.135 381.627,83.823 344,24.355 c -1.9,-3.007 -3.805,-6.022 -5.661,-9.2 a 73.716,73.716 0 0 1 -2.646,-4.972 43.7,43.7 0 0 1 -3.593,-9.506 0.626,0.626 0 0 0 -0.546,-0.644 0.818,0.818 0 0 0 -0.451,0 c -0.034,0.012 -0.084,0.051 -0.12,0.065 -0.053,0.021 -0.12,0.069 -0.176,0.1 0.027,-0.036 0.083,-0.117 0.1,-0.136 -60.37,35.356 -80.85,100.761 -82.732,133.484 2.8,-0.194 5.592,-0.429 8.442,-0.429 45.053,0 84.291,24.77 105.3,61.484 -12.832,-9.014 -35.81,-17.917 -57.947,-14.067 86.441,43.214 63.235,192.026 -56.545,186.408 a 106.743,106.743 0 0 1 -31.271,-6.031 134.51,134.51 0 0 1 -7.059,-2.886 c -1.356,-0.618 -2.711,-1.243 -4.05,-1.935 0.048,0.033 0.114,0.07 0.163,0.1 a 144.108,144.108 0 0 1 -3.5,-1.743 c 1.124,0.537 2.18,1.124 3.334,1.639 -29.35,-15.168 -53.584,-43.833 -56.611,-78.643 0,0 11.093,-41.335 79.432,-41.335 7.388,0 28.509,-20.615 28.9,-26.593 -0.089,-1.952 -41.917,-18.59 -58.223,-34.656 -8.713,-8.584 -12.85,-12.723 -16.514,-15.828 a 71.355,71.355 0 0 0 -6.225,-4.7 111.338,111.338 0 0 1 -0.674,-58.732 c -24.688,11.241 -43.89,29.01 -57.85,44.7 h -0.111 c -9.527,-12.067 -8.855,-51.873 -8.312,-60.184 -0.114,-0.515 -7.107,3.63 -8.023,4.255 A 175.073,175.073 0 0 0 77.345,104.49 210.478,210.478 0 0 0 54.91,131.406 c 0,0.012 -0.007,0.026 -0.011,0.038 0,-0.013 0.007,-0.026 0.011,-0.038 a 202.838,202.838 0 0 0 -32.247,72.805 c -0.115,0.521 -0.212,1.061 -0.324,1.586 -0.452,2.116 -2.486,12.853 -2.77,15.156 -0.022,0.177 0.021,-0.176 0,0 a 279.565,279.565 0 0 0 -3.544,33.53 c 0,0.41 -0.025,0.816 -0.025,1.227 C 16,388.418 123.6,496 256.324,496 c 118.865,0 217.56,-86.288 236.882,-199.63 0.407,-3.076 0.733,-6.168 1.092,-9.271 4.777,-41.21 -0.53,-84.525 -15.587,-120.746 z m -23.841,12.341 c 0.012,0.085 0.027,0.174 0.04,0.259 l -0.008,-0.026 z"
         fill="url(#l)"
         id="path50"
         style="display:inline;fill:url(#l);stroke:none;stroke-opacity:1" /></g></g></svg>
