<?xml version="1.0" encoding="UTF-8" standalone="no"?>
<svg
   id="svg4379"
   height="128"
   width="128"
   version="1.1"
   xml:space="preserve"
   xmlns:xlink="http://www.w3.org/1999/xlink"
   xmlns="http://www.w3.org/2000/svg"
   xmlns:svg="http://www.w3.org/2000/svg"
   xmlns:rdf="http://www.w3.org/1999/02/22-rdf-syntax-ns#"
   xmlns:cc="http://creativecommons.org/ns#"
   xmlns:dc="http://purl.org/dc/elements/1.1/"><defs
     id="defs4381"><linearGradient
       id="linearGradient880"><stop
         style="stop-color:#cbcbcb;stop-opacity:1;"
         offset="0"
         id="stop876" /><stop
         style="stop-color:#a7a7a7;stop-opacity:1;"
         offset="1"
         id="stop878" /></linearGradient><linearGradient
       gradientTransform="matrix(2.7297298,0,0,2.7297298,-1.5135124,1.486514)"
       gradientUnits="userSpaceOnUse"
       xlink:href="#linearGradient3924-776"
       id="linearGradient3159"
       y2="43"
       x2="23.99999"
       y1="4.999989"
       x1="23.99999" /><linearGradient
       id="linearGradient3924-776"><stop
         offset="0"
         style="stop-color:#ffffff;stop-opacity:1"
         id="stop3124" /><stop
         offset="0.06316455"
         style="stop-color:#ffffff;stop-opacity:0.23529412"
         id="stop3126" /><stop
         offset="0.95056331"
         style="stop-color:#ffffff;stop-opacity:0.15686275"
         id="stop3128" /><stop
         offset="1"
         style="stop-color:#ffffff;stop-opacity:0.39215687"
         id="stop3130" /></linearGradient><radialGradient
       gradientTransform="matrix(2.003784,0,0,1.4,27.98813,-17.4)"
       gradientUnits="userSpaceOnUse"
       xlink:href="#linearGradient3688-166-749-5"
       id="radialGradient2455-1"
       fy="43.5"
       fx="4.9929786"
       r="2.5"
       cy="43.5"
       cx="4.9929786" /><linearGradient
       id="linearGradient3688-166-749-5"><stop
         offset="0"
         style="stop-color:#181818;stop-opacity:1"
         id="stop2883-0" /><stop
         offset="1"
         style="stop-color:#181818;stop-opacity:0"
         id="stop2885-5" /></linearGradient><radialGradient
       gradientTransform="matrix(2.003784,0,0,1.4,-20.01187,-104.4)"
       gradientUnits="userSpaceOnUse"
       xlink:href="#linearGradient3688-464-309-8"
       id="radialGradient2457-5"
       fy="43.5"
       fx="4.9929786"
       r="2.5"
       cy="43.5"
       cx="4.9929786" /><linearGradient
       id="linearGradient3688-464-309-8"><stop
         offset="0"
         style="stop-color:#181818;stop-opacity:1"
         id="stop2889-9" /><stop
         offset="1"
         style="stop-color:#181818;stop-opacity:0"
         id="stop2891-4" /></linearGradient><linearGradient
       gradientUnits="userSpaceOnUse"
       xlink:href="#linearGradient3702-501-757-0"
       id="linearGradient2459-7"
       y2="39.999443"
       x2="25.058096"
       y1="47.027729"
       x1="25.058096" /><linearGradient
       id="linearGradient3702-501-757-0"><stop
         offset="0"
         style="stop-color:#181818;stop-opacity:0"
         id="stop2895-0" /><stop
         offset="0.5"
         style="stop-color:#181818;stop-opacity:1"
         id="stop2897-2" /><stop
         offset="1"
         style="stop-color:#181818;stop-opacity:0"
         id="stop2899-6" /></linearGradient><linearGradient
       id="linearGradient3811"><stop
         offset="0"
         style="stop-color:#000000;stop-opacity:1"
         id="stop3813" /><stop
         offset="1"
         style="stop-color:#000000;stop-opacity:0"
         id="stop3815" /></linearGradient><radialGradient
       gradientTransform="matrix(1.5563924,0,0,0.16978827,70.270358,102.13029)"
       gradientUnits="userSpaceOnUse"
       xlink:href="#linearGradient3811"
       id="radialGradient4377"
       fy="93.467628"
       fx="-4.0287771"
       r="35.338131"
       cy="93.467628"
       cx="-4.0287771" /><linearGradient
       xlink:href="#linearGradient880"
       id="linearGradient882"
       x1="62.871635"
       y1="15.90732"
       x2="62.871635"
       y2="118.42699"
       gradientUnits="userSpaceOnUse" /><linearGradient
       id="linearGradient7276"><stop
         style="stop-color:#206b00;stop-opacity:1"
         offset="0"
         id="stop7272" /><stop
         style="stop-color:#002e99;stop-opacity:1"
         offset="1"
         id="stop7274" /></linearGradient><linearGradient
       id="linearGradient4270"><stop
         id="stop4272"
         style="stop-color:#ffffff;stop-opacity:1"
         offset="0" /><stop
         id="stop4274"
         style="stop-color:#ffffff;stop-opacity:0.23529412"
         offset="0.0348749" /><stop
         id="stop4276"
         style="stop-color:#ffffff;stop-opacity:0.15686275"
         offset="0.96216321" /><stop
         id="stop4278"
         style="stop-color:#ffffff;stop-opacity:0.39215687"
         offset="1" /></linearGradient><linearGradient
       id="linearGradient1308"><stop
         style="stop-color:#363636;stop-opacity:1;"
         offset="0"
         id="stop1304" /><stop
         style="stop-color:#181312;stop-opacity:1;"
         offset="1"
         id="stop1306" /></linearGradient><linearGradient
       id="linearGradient43"><stop
         style="stop-color:#fe5757;stop-opacity:1;"
         offset="0"
         id="stop42" /><stop
         style="stop-color:#ff5454;stop-opacity:0.65517241;"
         offset="1"
         id="stop43" /></linearGradient><linearGradient
       id="linearGradient19"><stop
         style="stop-color:#a40101;stop-opacity:1;"
         offset="0"
         id="stop40" /><stop
         style="stop-color:#c10000;stop-opacity:0.65517241;"
         offset="1"
         id="stop41" /></linearGradient><linearGradient
       y2="42.091705"
       x2="23.99999"
       y1="5.9093657"
       x1="23.99999"
       gradientTransform="matrix(1.4324324,0,0,1.4362832,-2.3783747,-2.4707827)"
       gradientUnits="userSpaceOnUse"
       id="linearGradient3904-1"
       xlink:href="#linearGradient4270" /><radialGradient
       cx="4.9929786"
       cy="43.5"
       r="2.5"
       fx="4.9929786"
       fy="43.5"
       id="radialGradient3337-2-2-9"
       xlink:href="#linearGradient3688-166-749-5"
       gradientUnits="userSpaceOnUse"
       gradientTransform="matrix(2.4045407,0,0,0.99999998,41.985755,15.500001)" /><radialGradient
       cx="4.9929786"
       cy="43.5"
       r="2.5"
       fx="4.9929786"
       fy="43.5"
       id="radialGradient3339-1-4-5"
       xlink:href="#linearGradient3688-166-749-5"
       gradientUnits="userSpaceOnUse"
       gradientTransform="matrix(2.4045407,0,0,0.99999998,-22.014244,-102.5)" /><linearGradient
       x1="25.058096"
       y1="47.027729"
       x2="25.058096"
       y2="39.999443"
       id="linearGradient6394-4"
       xlink:href="#linearGradient3702-501-757-0"
       gradientUnits="userSpaceOnUse"
       gradientTransform="matrix(1.5714286,0,0,0.7142857,-5.7142853,27.928572)" /><linearGradient
       xlink:href="#linearGradient854-3"
       id="linearGradient899-3"
       x1="11.582137"
       y1="7.7737918"
       x2="49.683403"
       y2="56.373577"
       gradientUnits="userSpaceOnUse"
       gradientTransform="translate(-4,-4)" /><linearGradient
       id="linearGradient854-3"><stop
         style="stop-color:#ff4f4f;stop-opacity:1;"
         offset="0"
         id="stop850-3" /><stop
         style="stop-color:#f56b7a;stop-opacity:1;"
         offset="1"
         id="stop852-4" /></linearGradient><linearGradient
       xlink:href="#linearGradient1308"
       id="linearGradient1202-1"
       gradientUnits="userSpaceOnUse"
       gradientTransform="translate(-66.628688,2.4442062)"
       x1="71.033745"
       y1="1.8683437"
       x2="126.65769"
       y2="57.49229" /><linearGradient
       xlink:href="#linearGradient7276"
       id="linearGradient1217-1"
       x1="9.5805931"
       y1="10.073647"
       x2="55.145584"
       y2="55.638638"
       gradientUnits="userSpaceOnUse" /><linearGradient
       xlink:href="#linearGradient7276"
       id="linearGradient1064-3"
       gradientUnits="userSpaceOnUse"
       x1="9.5805931"
       y1="10.073647"
       x2="55.145584"
       y2="55.638638"
       gradientTransform="translate(0,-1)" /><linearGradient
       id="linearGradient918"><stop
         id="stop914"
         offset="0"
         style="stop-color:#ededed;stop-opacity:1;" /><stop
         id="stop916"
         offset="1"
         style="stop-color:#fcfdfd;stop-opacity:1;" /></linearGradient><linearGradient
       gradientTransform="matrix(4.3534089,0,0,4.3534106,-250.21212,-56.316077)"
       gradientUnits="userSpaceOnUse"
       xlink:href="#linearGradient4806-2-9"
       id="linearGradient3549"
       y2="40.495617"
       x2="71.204407"
       y1="15.369057"
       x1="71.204407" /><linearGradient
       id="linearGradient4806-2-9"><stop
         offset="0"
         style="stop-color:#ffffff;stop-opacity:1"
         id="stop4808-4-5" /><stop
         offset="0.42447853"
         style="stop-color:#ffffff;stop-opacity:0.23529412"
         id="stop4810-0-5" /><stop
         offset="0.82089913"
         style="stop-color:#ffffff;stop-opacity:0.15686275"
         id="stop4812-8-4" /><stop
         offset="1"
         style="stop-color:#ffffff;stop-opacity:0.39215687"
         id="stop4814-0-5" /></linearGradient><radialGradient
       gradientTransform="matrix(0.3823536,7.5560295e-8,-1.8372241e-8,0.11152647,-5.9254255,100.33292)"
       gradientUnits="userSpaceOnUse"
       xlink:href="#linearGradient3811"
       id="radialGradient3300"
       fy="185.29727"
       fx="99.189415"
       r="62.769119"
       cy="185.29727"
       cx="99.189415" /><radialGradient
       gradientTransform="matrix(0.47337653,9.9486596e-8,-2.2745928e-8,0.14684152,-14.878998,92.130336)"
       gradientUnits="userSpaceOnUse"
       xlink:href="#linearGradient3811"
       id="radialGradient4192"
       fy="185.29727"
       fx="99.189415"
       r="62.769119"
       cy="185.29727"
       cx="99.189415" /><linearGradient
       gradientTransform="rotate(90,63.999948,65.000052)"
       gradientUnits="userSpaceOnUse"
       y2="65"
       x2="117.49987"
       y1="65"
       x1="10.499919"
       id="linearGradient920"
       xlink:href="#linearGradient918" /><linearGradient
       xlink:href="#linearGradient43"
       id="linearGradient41"
       x1="24.689734"
       y1="65.305435"
       x2="102.349"
       y2="65.305435"
       gradientUnits="userSpaceOnUse"
       gradientTransform="translate(0,4.2854287)" /><linearGradient
       xlink:href="#linearGradient19"
       id="linearGradient42"
       gradientUnits="userSpaceOnUse"
       gradientTransform="matrix(1,0,0,1.0042893,0,4.45493)"
       x1="24.689734"
       y1="65.305435"
       x2="102.349"
       y2="65.305435" /><filter
       style="color-interpolation-filters:sRGB"
       x="-0.15452115"
       width="1.3090423"
       y="-0.17098614"
       height="1.3419723"
       id="filter49"><feGaussianBlur
         in="SourceGraphic"
         result="result8"
         stdDeviation="5"
         id="feGaussianBlur43" /><feComposite
         result="result18"
         operator="xor"
         in2="result8"
         in="SourceGraphic"
         id="feComposite43" /><feComposite
         in2="result18"
         result="result16"
         operator="arithmetic"
         k2="0.5"
         k1="1"
         in="result8"
         id="feComposite44"
         k3="0"
         k4="0" /><feComposite
         in="result16"
         operator="atop"
         result="result6"
         in2="result8"
         id="feComposite45" /><feOffset
         in="result6"
         result="result17"
         id="feOffset45" /><feDisplacementMap
         result="result4"
         scale="100"
         yChannelSelector="A"
         xChannelSelector="A"
         in="result17"
         in2="result16"
         id="feDisplacementMap45" /><feComposite
         k3="1"
         in="result17"
         operator="arithmetic"
         result="result2"
         in2="result4"
         id="feComposite46"
         k1="0"
         k2="0"
         k4="0" /><feComposite
         operator="out"
         in="result2"
         result="fbSourceGraphic"
         in2="result17"
         id="feComposite47" /><feComposite
         result="result14"
         operator="over"
         in2="fbSourceGraphic"
         in="fbSourceGraphic"
         id="feComposite48" /><feComposite
         in="result14"
         operator="in"
         in2="SourceGraphic"
         result="result15"
         id="feComposite49" /></filter><linearGradient
       xlink:href="#linearGradient7276"
       id="linearGradient15"
       gradientUnits="userSpaceOnUse"
       x1="9.5805931"
       y1="10.073647"
       x2="55.145584"
       y2="55.638638" /><linearGradient
       xlink:href="#linearGradient7276"
       id="linearGradient16"
       gradientUnits="userSpaceOnUse"
       gradientTransform="translate(0,-1)"
       x1="9.5805931"
       y1="10.073647"
       x2="55.145584"
       y2="55.638638" /><linearGradient
       xlink:href="#linearGradient19"
       id="linearGradient17"
       gradientUnits="userSpaceOnUse"
       gradientTransform="matrix(1,0,0,1.0042893,0,4.45493)"
       x1="24.689734"
       y1="65.305435"
       x2="102.349"
       y2="65.305435" /></defs><metadata
     id="metadata4384"><rdf:RDF><cc:Work
         rdf:about=""><dc:format>image/svg+xml</dc:format><dc:type
           rdf:resource="http://purl.org/dc/dcmitype/StillImage" /><dc:title /></cc:Work></rdf:RDF></metadata><path
     d="M 119,118 A 55,6 0 0 1 9.0000016,118 55,6 0 1 1 119,118 Z"
     id="path3041"
     style="color:#000000;display:none;overflow:visible;visibility:visible;opacity:0.2;fill:url(#radialGradient4377);fill-opacity:1;fill-rule:nonzero;stroke:none;stroke-width:1;marker:none;enable-background:accumulate" /><g
     transform="matrix(2.6999989,0,0,0.55555607,-0.8000019,94.888882)"
     id="g2036"
     style="display:none"><g
       transform="matrix(1.052632,0,0,1.285713,-1.263158,-13.42854)"
       id="g3712"
       style="opacity:0.4"><rect
         width="5"
         height="7"
         x="38"
         y="40"
         id="rect2801"
         style="fill:url(#radialGradient2455-1);fill-opacity:1;stroke:none" /><rect
         width="5"
         height="7"
         x="-10"
         y="-47"
         transform="scale(-1)"
         id="rect3696"
         style="fill:url(#radialGradient2457-5);fill-opacity:1;stroke:none" /><rect
         width="28"
         height="7.0000005"
         x="10"
         y="40"
         id="rect3700"
         style="fill:url(#linearGradient2459-7);fill-opacity:1;stroke:none" /></g></g><rect
     width="103"
     height="103"
     rx="10"
     ry="10"
     x="12.5"
     y="15.5"
     id="rect5505-21-3"
     style="color:#000000;display:none;overflow:visible;visibility:visible;fill:url(#linearGradient882);fill-opacity:1;fill-rule:nonzero;stroke:none;stroke-width:1;marker:none;enable-background:accumulate" /><rect
     width="101"
     height="101"
     rx="9"
     ry="9"
     x="13.5"
     y="16.5"
     id="rect6741-7"
     style="display:none;opacity:0.3;fill:none;stroke:url(#linearGradient3159);stroke-width:1;stroke-linecap:round;stroke-linejoin:round;stroke-miterlimit:4;stroke-dasharray:none;stroke-dashoffset:0;stroke-opacity:1" /><rect
     width="103"
     height="103"
     rx="10"
     ry="10"
     x="12.5"
     y="15.5"
     id="rect5505-21-6"
     style="color:#000000;display:none;overflow:visible;visibility:visible;opacity:0.5;fill:none;stroke:#767676;stroke-width:1;stroke-linecap:round;stroke-linejoin:round;stroke-miterlimit:4;stroke-dasharray:none;stroke-dashoffset:0;stroke-opacity:1;marker:none;enable-background:accumulate" /><g
     id="g15"
     transform="matrix(1.8699383,0,0,1.8699383,11.813978,14.513146)"><g
       id="g866"
       style="display:inline"
       transform="translate(-4,-4)"><rect
         style="opacity:0.6;fill:url(#radialGradient3337-2-2-9);fill-opacity:1;stroke:none;stroke-width:1.06199"
         id="rect2801-5-5-7-9"
         y="56.5"
         x="54"
         height="5"
         width="6" /><rect
         style="opacity:0.6;fill:url(#radialGradient3339-1-4-5);fill-opacity:1;stroke:none;stroke-width:1.06199"
         id="rect3696-3-0-3-7"
         transform="scale(-1)"
         y="-61.5"
         x="-10"
         height="5"
         width="6" /><rect
         style="opacity:0.6;fill:url(#linearGradient6394-4);fill-opacity:1;stroke:none;stroke-width:1.06199"
         id="rect3700-5-6-8-4"
         y="56.5"
         x="10"
         height="5.0000005"
         width="44" /></g><rect
       width="55"
       height="55"
       rx="6"
       ry="6"
       x="0.5"
       y="0.5"
       id="rect5505-21-3-8-5-2-9"
       style="color:#000000;display:inline;overflow:visible;visibility:visible;fill:url(#linearGradient899-3);fill-opacity:1;fill-rule:nonzero;stroke:none;stroke-width:1;marker:none;enable-background:accumulate" /><path
       id="rect532"
       style="font-variation-settings:normal;display:none;fill:#ab5eda;fill-opacity:1;stroke:none;stroke-width:1;stroke-linecap:butt;stroke-linejoin:miter;stroke-miterlimit:4;stroke-dasharray:none;stroke-dashoffset:0;stroke-opacity:0.5;marker:none;stop-color:#000000"
       d="M 6.141026,0.5 C 3.0159002,0.5 0.5,3.0159003 0.5,6.141026 v 7.75641 H 13.897436 V 0.5 Z" /><path
       id="rect532-3"
       style="font-variation-settings:normal;display:none;opacity:0.8;fill:#ab5eda;fill-opacity:1;stroke:none;stroke-width:1;stroke-linecap:butt;stroke-linejoin:miter;stroke-miterlimit:4;stroke-dasharray:none;stroke-dashoffset:0;stroke-opacity:0.5;marker:none;stop-color:#000000"
       d="M 13.897436,0.5 V 13.897436 H 28 V 0.5 Z" /><path
       id="rect532-6"
       style="font-variation-settings:normal;display:none;opacity:0.6;fill:#ab5eda;fill-opacity:1;stroke:none;stroke-width:1;stroke-linecap:butt;stroke-linejoin:miter;stroke-miterlimit:4;stroke-dasharray:none;stroke-dashoffset:0;stroke-opacity:0.5;marker:none;stop-color:#000000"
       d="M 28,0.5 V 13.897436 H 42.102564 V 0.5 Z" /><path
       id="rect532-3-7"
       style="font-variation-settings:normal;display:none;opacity:0.4;fill:#ab5eda;fill-opacity:1;stroke:none;stroke-width:1;stroke-linecap:butt;stroke-linejoin:miter;stroke-miterlimit:4;stroke-dasharray:none;stroke-dashoffset:0;stroke-opacity:0.5;marker:none;stop-color:#000000"
       d="M 42.102564,0.5 V 13.897436 H 55.5 V 6.141026 C 55.5,3.0159003 52.984097,0.5 49.858975,0.5 Z" /><path
       id="rect532-5"
       style="font-variation-settings:normal;display:none;opacity:0.8;fill:#ab5eda;fill-opacity:1;stroke:none;stroke-width:1;stroke-linecap:butt;stroke-linejoin:miter;stroke-miterlimit:4;stroke-dasharray:none;stroke-dashoffset:0;stroke-opacity:0.5;marker:none;stop-color:#000000"
       d="M 0.5,13.897436 V 28 H 13.897436 V 13.897436 Z" /><rect
       style="font-variation-settings:normal;display:none;opacity:0.6;fill:#ab5eda;fill-opacity:1;stroke:none;stroke-width:1;stroke-linecap:butt;stroke-linejoin:miter;stroke-miterlimit:4;stroke-dasharray:none;stroke-dashoffset:0;stroke-opacity:0.5;marker:none;stop-color:#000000"
       id="rect532-3-3"
       width="14.102564"
       height="14.102564"
       x="13.897459"
       y="13.897432"
       rx="0"
       ry="0" /><rect
       style="font-variation-settings:normal;display:none;opacity:0.4;fill:#ab5eda;fill-opacity:1;stroke:none;stroke-width:1;stroke-linecap:butt;stroke-linejoin:miter;stroke-miterlimit:4;stroke-dasharray:none;stroke-dashoffset:0;stroke-opacity:0.5;marker:none;stop-color:#000000"
       id="rect532-6-5"
       width="14.102564"
       height="14.102564"
       x="28.000023"
       y="13.897432"
       rx="0"
       ry="0" /><path
       id="rect532-3-7-6"
       style="font-variation-settings:normal;display:none;opacity:0.2;fill:#ab5eda;fill-opacity:1;stroke:none;stroke-width:1;stroke-linecap:butt;stroke-linejoin:miter;stroke-miterlimit:4;stroke-dasharray:none;stroke-dashoffset:0;stroke-opacity:0.5;marker:none;stop-color:#000000"
       d="M 42.102564,13.897436 V 28 H 55.5 V 13.897436 Z" /><path
       id="rect532-5-2"
       style="font-variation-settings:normal;display:none;opacity:0.6;fill:#ab5eda;fill-opacity:1;stroke:none;stroke-width:1;stroke-linecap:butt;stroke-linejoin:miter;stroke-miterlimit:4;stroke-dasharray:none;stroke-dashoffset:0;stroke-opacity:0.5;marker:none;stop-color:#000000"
       d="M 0.5,28 V 42.102565 H 13.897436 V 28 Z" /><rect
       style="font-variation-settings:normal;display:none;opacity:0.4;fill:#ab5eda;fill-opacity:1;stroke:none;stroke-width:1;stroke-linecap:butt;stroke-linejoin:miter;stroke-miterlimit:4;stroke-dasharray:none;stroke-dashoffset:0;stroke-opacity:0.5;marker:none;stop-color:#000000"
       id="rect532-3-3-9"
       width="14.102564"
       height="14.102564"
       x="13.897459"
       y="27.999996"
       rx="0"
       ry="0" /><rect
       style="font-variation-settings:normal;display:none;opacity:0.2;fill:#ab5eda;fill-opacity:1;stroke:none;stroke-width:1;stroke-linecap:butt;stroke-linejoin:miter;stroke-miterlimit:4;stroke-dasharray:none;stroke-dashoffset:0;stroke-opacity:0.5;marker:none;stop-color:#000000"
       id="rect532-6-5-1"
       width="14.102564"
       height="14.102564"
       x="28.000023"
       y="27.999996"
       rx="0"
       ry="0" /><path
       id="rect532-5-2-7"
       style="font-variation-settings:normal;display:none;opacity:0.4;fill:#ab5eda;fill-opacity:1;stroke:none;stroke-width:1;stroke-linecap:butt;stroke-linejoin:miter;stroke-miterlimit:4;stroke-dasharray:none;stroke-dashoffset:0;stroke-opacity:0.5;marker:none;stop-color:#000000"
       d="m 0.5,42.102565 v 7.75641 c 0,3.125127 2.5159002,5.641024 5.641026,5.641024 h 7.75641 V 42.102565 Z" /><path
       id="rect532-3-3-9-0"
       style="font-variation-settings:normal;display:none;opacity:0.2;fill:#ab5eda;fill-opacity:1;stroke:none;stroke-width:1;stroke-linecap:butt;stroke-linejoin:miter;stroke-miterlimit:4;stroke-dasharray:none;stroke-dashoffset:0;stroke-opacity:0.5;marker:none;stop-color:#000000"
       d="M 13.897436,42.102565 V 55.499999 H 28 V 42.102565 Z" /><g
       id="g1"
       style="display:none"
       transform="translate(-4,-4)"><path
         id="path918-0-2"
         style="font-variation-settings:normal;display:inline;opacity:0.07;vector-effect:none;fill:url(#linearGradient15);fill-opacity:1;stroke:none;stroke-width:1;stroke-linecap:butt;stroke-linejoin:miter;stroke-miterlimit:4;stroke-dasharray:none;stroke-dashoffset:0;stroke-opacity:0.5;-inkscape-stroke:none;marker:none;stop-color:#000000"
         d="m 31.019531,9.8007812 c -0.638021,3.1438798 -1.276041,6.2877608 -1.914062,9.4316408 -1.925567,0.396694 -3.766868,1.223802 -5.341797,2.40039 -2.521296,-1.478186 -5.042656,-2.956263 -7.564453,-4.433593 1.47733,2.521797 2.955407,5.043157 4.433593,7.564453 -1.174981,1.575715 -2.00535,3.41557 -2.40039,5.341797 -3.267731,0.69105 -6.562758,1.27598 -9.8133819,2.033535 C 7.5020163,32.426003 6.5849925,32.713001 5.6679688,33 c 1.863689,0.615567 3.7396761,1.183323 5.6808712,1.497573 2.294527,0.465653 4.589055,0.931306 6.883582,1.396958 0.396694,1.925567 1.223802,3.766868 2.40039,5.341797 -1.478186,2.521296 -2.956263,5.042656 -4.433593,7.564453 2.521797,-1.47733 5.043157,-2.955407 7.564453,-4.433593 1.575715,1.174981 3.41557,2.00535 5.341797,2.40039 0.69105,3.267731 1.27598,6.562758 2.033535,9.813382 0.286999,0.917024 0.573997,1.834047 0.860996,2.751071 0.615567,-1.863689 1.183323,-3.739676 1.497573,-5.680871 0.465653,-2.294527 0.931306,-4.589055 1.396958,-6.883582 1.925567,-0.396694 3.766868,-1.223802 5.341797,-2.40039 2.521296,1.478186 5.042656,2.956263 7.564453,4.433593 -1.47733,-2.521797 -2.955407,-5.043157 -4.433593,-7.564453 1.174981,-1.575715 2.00535,-3.41557 2.40039,-5.341797 3.267731,-0.69105 6.562758,-1.27598 9.813382,-2.033535 C 56.497984,33.573997 57.415007,33.286999 58.332031,33 56.46834,32.384446 54.592354,31.816682 52.651182,31.502316 50.360554,31.037352 48.069925,30.572387 45.779297,30.107422 45.384338,28.176245 44.554036,26.33115 43.375,24.751953 44.849956,22.235229 46.324793,19.718435 47.798828,17.201172 45.281565,18.675208 42.764771,20.150044 40.248047,21.625 38.668078,20.447541 36.824402,19.61404 34.892578,19.220703 34.202115,15.956896 33.61796,12.66574 32.860996,9.4190401 32.573997,8.5020163 32.286999,7.5849925 32,6.6679688 31.673177,7.7122396 31.346354,8.7565104 31.019531,9.8007812 Z m 1.414063,14.2109378 c 3.909881,0.127304 7.491037,3.104595 8.324599,6.927223 0.86639,3.546862 -0.690253,7.513746 -3.744456,9.516873 -3.102386,2.145351 -7.567811,2.012875 -10.509783,-0.360825 -2.849656,-2.126824 -4.13579,-6.043906 -3.175916,-9.459236 0.938784,-3.575685 4.278376,-6.373061 7.981375,-6.582799 0.374701,-0.02523 0.748255,-0.06845 1.124181,-0.04124 z" /><path
         id="path918-0"
         style="font-variation-settings:normal;display:inline;opacity:0.15;vector-effect:none;fill:url(#linearGradient1217-1);fill-opacity:1;stroke:none;stroke-width:1;stroke-linecap:butt;stroke-linejoin:miter;stroke-miterlimit:4;stroke-dasharray:none;stroke-dashoffset:0;stroke-opacity:0.5;-inkscape-stroke:none;marker:none;stop-color:#000000"
         d="m 32.000001,10 -2.042969,10.0625 a 13.110333,13.110333 0 0 0 -6.142579,2.759765 L 19,20 21.822266,24.814453 A 13.110333,13.110333 0 0 0 19.0625,30.957031 L 9,33 19.0625,35.042968 a 13.110333,13.110333 0 0 0 2.759766,6.142578 L 19,46 23.814453,43.177734 A 13.110333,13.110333 0 0 0 29.957032,45.9375 L 32.000001,56 34.042968,45.9375 a 13.110333,13.110333 0 0 0 6.142579,-2.759766 L 45,46 42.177734,41.185546 A 13.110333,13.110333 0 0 0 44.9375,35.042968 L 55,33 44.949219,30.958984 a 13.110333,13.110333 0 0 0 -2.763672,-6.15625 L 45,20 40.197266,22.814453 a 13.110333,13.110333 0 0 0 -6.15625,-2.763672 z m 0,12.999999 A 10,10 0 0 1 41.999999,33 10,10 0 0 1 32.000001,43 10,10 0 0 1 22,33 10,10 0 0 1 32.000001,22.999999 Z" /><path
         id="path918"
         style="font-variation-settings:normal;display:inline;opacity:1;vector-effect:none;fill:#fafafa;fill-opacity:1;stroke:none;stroke-width:0.707893;stroke-linecap:butt;stroke-linejoin:miter;stroke-miterlimit:4;stroke-dasharray:none;stroke-dashoffset:0;stroke-opacity:0.5;-inkscape-stroke:none;marker:none;stop-color:#000000;stop-opacity:1"
         d="m 47.410313,14.949072 -1.446204,7.123176 a 9.280717,9.280717 0 0 0 -4.34829,1.953619 l -3.408119,-1.997862 1.997863,3.408119 a 9.280717,9.280717 0 0 0 -1.95362,4.348289 l -7.123176,1.446204 7.123176,1.446204 a 9.280717,9.280717 0 0 0 1.95362,4.34829 L 38.2077,40.43323 41.615819,38.435367 a 9.280717,9.280717 0 0 0 4.34829,1.95362 l 1.446204,7.123176 1.446203,-7.123176 a 9.280717,9.280717 0 0 0 4.34829,-1.95362 l 3.408119,1.997863 -1.997863,-3.408119 a 9.280717,9.280717 0 0 0 1.95362,-4.34829 l 7.123176,-1.446204 -7.11488,-1.444821 a 9.280717,9.280717 0 0 0 -1.956385,-4.357968 l 1.992332,-3.399823 -3.399823,1.992332 a 9.280717,9.280717 0 0 0 -4.357968,-1.956385 z m 0,9.202612 a 7.0789329,7.0789329 0 0 1 7.078932,7.078933 7.0789329,7.0789329 0 0 1 -7.078932,7.078933 7.0789329,7.0789329 0 0 1 -7.078933,-7.078933 7.0789329,7.0789329 0 0 1 7.078933,-7.078933 z"
         transform="matrix(1.4126423,0,0,1.4126423,-34.973813,-12.117691)" /><path
         id="path918-0-3"
         style="font-variation-settings:normal;display:inline;opacity:0.15;vector-effect:none;fill:url(#linearGradient16);fill-opacity:1;stroke:none;stroke-width:1;stroke-linecap:butt;stroke-linejoin:miter;stroke-miterlimit:4;stroke-dasharray:none;stroke-dashoffset:0;stroke-opacity:0.5;-inkscape-stroke:none;marker:none;stop-color:#000000"
         d="m 19,19 2.507812,4.279297 a 13.110333,13.110333 0 0 1 0.314454,-0.464844 l -1.929688,-3.291015 z m 26,0 -0.892578,0.523438 -1.921875,3.279296 A 13.110333,13.110333 0 0 1 42.5,23.265625 Z M 32,21 A 10,10 0 0 0 22,31 10,10 0 0 0 22.056641,31.5 10,10 0 0 1 32,22 10,10 0 0 1 41.972656,31.248047 10,10 0 0 0 42,31 10,10 0 0 0 32,21 Z M 11.462891,31.5 9,32 19.0625,34.042969 a 13.110333,13.110333 0 0 0 2.445312,5.677734 l 0.314454,-0.535156 A 13.110333,13.110333 0 0 1 19.0625,33.042969 Z m 41.074218,0 -7.599609,1.542969 a 13.110333,13.110333 0 0 1 -2.759766,6.142578 l 0.314454,0.535156 A 13.110333,13.110333 0 0 0 44.9375,34.042969 L 55,32 Z M 23.814453,41.177734 19.892578,43.476562 19,45 23.814453,42.177734 A 13.110333,13.110333 0 0 0 29.957031,44.9375 L 32,55 34.042969,44.9375 a 13.110333,13.110333 0 0 0 6.142578,-2.759766 L 45,45 44.107422,43.476562 40.185547,41.177734 A 13.110333,13.110333 0 0 1 34.042969,43.9375 L 32,54 29.957031,43.9375 a 13.110333,13.110333 0 0 1 -6.142578,-2.759766 z" /><path
         id="path918-0-3-2"
         style="font-variation-settings:normal;display:inline;opacity:0.05;vector-effect:none;fill:url(#linearGradient1064-3);fill-opacity:1;stroke:none;stroke-width:1;stroke-linecap:butt;stroke-linejoin:miter;stroke-miterlimit:4;stroke-dasharray:none;stroke-dashoffset:0;stroke-opacity:0.5;-inkscape-stroke:none;marker:none;stop-color:#000000"
         d="m 19,19 2.822266,4.814453 a 13.110333,13.110333 0 0 0 -0.621094,0.917969 c 0.08234,0.140442 0.163743,0.281437 0.246094,0.421875 0.518762,-0.767657 1.038162,-1.534886 1.55664,-2.302735 -0.459857,-0.74709 -0.891195,-1.523146 -1.333984,-2.287109 z m 26,0 -2.658203,1.556641 c -0.44638,0.76137 -0.892715,1.52308 -1.337891,2.285156 0.516714,0.766883 1.038707,1.530191 1.558594,2.294922 0.08163,-0.139176 0.162516,-0.278789 0.244141,-0.417969 a 13.110333,13.110333 0 0 0 -0.621094,-0.916016 z m -13.070312,1.001953 c -3.020863,0.03581 -6.003156,1.33621 -8.033204,3.582031 -1.921967,2.097151 -3.017449,4.980048 -2.857422,7.828125 0.23178,0.938655 0.685998,1.822207 1.001954,2.740235 0.04809,-0.131262 0.10409,-0.260413 0.15625,-0.390625 A 10,10 0 0 1 22,32 10,10 0 0 1 32,22 10,10 0 0 1 42,32 10,10 0 0 1 41.832031,33.492188 l 0.195313,0.482421 c 0.345238,-1.24131 1.15861,-2.418732 0.943359,-3.751953 -0.253718,-4.485781 -3.559245,-8.583639 -7.890625,-9.779297 -1.019848,-0.302091 -2.08724,-0.448205 -3.15039,-0.441406 z M 13.984375,30.988281 9,32 19.0625,34.042969 a 13.110333,13.110333 0 0 0 2.759766,6.142578 l -0.560547,0.955078 c 0.19658,0.270641 -0.03521,0.44129 -0.347657,0.59375 L 19,45 23.814453,42.177734 A 13.110333,13.110333 0 0 0 29.957031,44.9375 L 32,55 34.042969,44.9375 a 13.110333,13.110333 0 0 0 6.142578,-2.759766 L 45,45 43.072266,41.708984 c -0.167163,-0.09792 -0.33488,-0.194897 -0.501954,-0.292968 0.05911,-0.08668 0.116651,-0.174887 0.175782,-0.261719 l -0.56836,-0.96875 A 13.110333,13.110333 0 0 0 44.9375,34.042969 L 55,32 50.013672,30.988281 c -1.610201,0.323135 -3.21974,0.676166 -4.830078,0.984375 -0.558049,0.126597 -1.300177,0.06479 -1.220703,0.845703 -0.369621,2.148582 -1.304611,4.167431 -2.660157,5.871094 -0.63516,0.47567 0.115593,1.008429 0.31836,1.519531 0.231259,0.439158 0.950638,1.367431 0.0625,0.6875 -0.516748,-0.302785 -1.033351,-0.606584 -1.550782,-0.908203 -1.691892,1.301706 -3.569715,2.441089 -5.697265,2.832031 -0.490766,0.217444 -1.415516,0.01135 -1.34375,0.777344 -0.364114,1.791062 -0.72797,3.581926 -1.091797,5.373047 -0.397333,-1.954385 -0.79281,-3.909154 -1.191406,-5.863281 -2.127569,-0.401194 -4.250777,-1.073315 -5.972656,-2.431641 -0.488626,-0.282837 -0.958169,-0.991319 -1.486329,-0.384765 -0.516815,0.302668 -1.034027,0.605428 -1.550781,0.908203 0.403665,-0.688522 0.807081,-1.377193 1.212891,-2.064453 -1.299939,-1.693779 -2.441576,-3.570721 -2.832031,-5.699219 -0.217444,-0.490766 -0.01135,-1.415516 -0.777344,-1.34375 -1.806397,-0.348425 -3.611617,-0.743593 -5.417969,-1.103516 z" /></g><g
       id="g2"
       style="display:inline"
       transform="translate(-4,-4)"><rect
         style="color:#000000;font-variation-settings:normal;display:inline;overflow:visible;visibility:visible;opacity:1;vector-effect:none;fill:none;fill-opacity:1;stroke:url(#linearGradient1202-1);stroke-width:1;stroke-linecap:butt;stroke-linejoin:miter;stroke-miterlimit:4;stroke-dasharray:none;stroke-dashoffset:0;stroke-opacity:0.5;-inkscape-stroke:none;marker:none;enable-background:accumulate;stop-color:#000000;stop-opacity:1"
         id="rect5505-21-9"
         y="4.5"
         x="4.5"
         ry="6"
         rx="6"
         height="55"
         width="55" /><rect
         style="display:inline;opacity:0.35;fill:none;stroke:url(#linearGradient3904-1);stroke-width:1;stroke-linecap:round;stroke-linejoin:round;stroke-miterlimit:4;stroke-dasharray:none;stroke-dashoffset:0;stroke-opacity:1"
         id="rect6741"
         y="5.428761"
         x="5.5"
         ry="5"
         rx="5"
         height="53.142479"
         width="53" /></g><g
       id="g19"
       transform="matrix(0.37416785,0,0,0.37416785,3.6372461,2.8531446)"
       style="display:inline"><g
         id="g4230"
         transform="matrix(2,0,0,6.4319747,-5e-7,-700.29276)"
         style="display:inline"><path
           style="opacity:0.2;fill:url(#radialGradient3300);fill-opacity:1;stroke:none;stroke-width:1"
           id="path3818-0"
           d="M 56,121 A 24,6.9989899 0 1 1 8.0000005,121 24,6.9989899 0 1 1 56,121 Z" /><path
           style="display:inline;opacity:0.4;fill:url(#radialGradient4192);fill-opacity:1;stroke:none;stroke-width:1.85029"
           id="path4190"
           d="m 61.788366,119.3417 a 29.713429,9.2152314 0 1 1 -59.4268572,0 29.713429,9.2152314 0 1 1 59.4268572,0 z" /></g><path
         style="color:#000000;display:inline;overflow:visible;visibility:visible;fill:url(#linearGradient920);fill-opacity:1;fill-rule:nonzero;stroke:none;stroke-width:1;marker:none;enable-background:accumulate"
         id="path2555"
         d="m 117.5,65.000007 c 0,-29.519442 -23.98054,-53.499983 -53.499991,-53.499983 -29.51946,0 -53.500008,23.980541 -53.500008,53.499983 0,29.519431 23.980548,53.500003 53.500008,53.499973 C 93.51946,118.49998 117.5,94.519438 117.5,65.000007 Z" /><path
         style="color:#000000;display:inline;overflow:visible;visibility:visible;opacity:0.5;fill:none;stroke:#b7b7b7;stroke-width:1;stroke-linecap:butt;stroke-linejoin:miter;stroke-miterlimit:4;stroke-dasharray:none;stroke-dashoffset:0;stroke-opacity:1;marker:none;enable-background:accumulate"
         id="path2555-7-1"
         d="m 64,11.500005 c -29.51944,0 -53.499976,23.980539 -53.499976,53.499993 C 10.500024,94.519451 34.48056,118.5 64,118.5 93.519437,118.5 117.49999,94.519451 117.49998,64.999998 117.49998,35.480544 93.519437,11.500005 64,11.500005 Z" /><path
         style="color:#000000;display:inline;overflow:visible;visibility:visible;opacity:0.996795;fill:none;stroke:url(#linearGradient3549);stroke-width:1;stroke-linecap:round;stroke-linejoin:round;stroke-miterlimit:4;stroke-dasharray:none;stroke-dashoffset:0;stroke-opacity:1;marker:none;enable-background:accumulate"
         id="path3026-5"
         d="M 116.5,64.999989 C 116.5,93.994952 92.994916,117.5 63.999973,117.5 35.005061,117.5 11.5,93.994952 11.5,64.999989 11.5,36.005035 35.005061,12.499974 63.999973,12.499974 92.994916,12.499974 116.5,36.005035 116.5,64.999989 Z" /><path
         d="m 100.944,49.74026 c -9.591482,16.694264 -19.182961,33.388519 -28.77444,50.117054 -1.774935,3.119456 -4.369072,4.970576 -7.918944,5.244796 -3.959472,0.27424 -7.099742,-1.40546 -9.113612,-4.83344 C 49.061263,89.813333 43.053786,79.28944 37.046311,68.799831 33.39404,62.423783 29.707635,56.047745 26.055363,49.637421 22.368958,43.19282 26.533231,35.34275 33.90604,34.96567 c 3.891206,-0.205679 6.894943,1.611156 8.874682,5.004854 2.696537,4.627766 5.35894,9.324103 8.055477,13.986153 1.945602,3.359422 3.822935,6.753118 5.802674,10.043977 2.867204,4.833453 7.099743,7.541553 12.73175,7.884348 7.953077,0.479926 15.36002,-5.313363 16.315755,-13.780467 0.06827,-0.617035 0.1024,-1.268355 0.136533,-1.576871 -0.03413,-2.742387 -0.546134,-5.073408 -1.638402,-7.233037 -2.969604,-5.964683 0.2048,-12.649246 6.656009,-14.088993 5.256541,-1.165515 10.717882,2.7081 11.400552,8.055749 0.34133,2.296744 -0.13653,4.456373 -1.29707,6.478877 z"
         style="display:inline;fill:url(#linearGradient17);stroke-width:0.342065"
         id="path41" /><path
         d="m 100.944,49.377343 c -9.591482,16.622961 -19.182961,33.245914 -28.77444,49.903001 -1.774935,3.106136 -4.369072,4.949336 -7.918944,5.222386 -3.959472,0.27307 -7.099742,-1.39945 -9.113612,-4.812786 C 49.061263,89.279262 43.053786,78.800316 37.046311,68.355509 33.39404,62.006694 29.707635,55.657888 26.055363,49.274943 22.368958,42.857867 26.533231,35.041325 33.90604,34.665856 c 3.891206,-0.2048 6.894943,1.604275 8.874682,4.983478 2.696537,4.608 5.35894,9.284279 8.055477,13.926418 1.945602,3.345073 3.822935,6.724275 5.802674,10.001078 2.867204,4.812809 7.099743,7.509343 12.73175,7.850673 7.953077,0.477877 15.36002,-5.290669 16.315755,-13.72161 0.06827,-0.614399 0.1024,-1.262937 0.136533,-1.570136 -0.03413,-2.730674 -0.546134,-5.051739 -1.638402,-7.202144 -2.969604,-5.939207 0.2048,-12.595221 6.656009,-14.028818 5.256541,-1.160537 10.717882,2.696534 11.400552,8.021342 0.34133,2.286935 -0.13653,4.43734 -1.29707,6.451206 z"
         style="fill:url(#linearGradient41);stroke-width:0.341334"
         id="path1" /><path
         d="m 100.944,49.74026 c -9.591482,16.694264 -19.182961,33.388519 -28.77444,50.117054 -1.774935,3.119456 -4.369072,4.970576 -7.918944,5.244796 -3.959472,0.27424 -7.099742,-1.40546 -9.113612,-4.83344 C 49.061263,89.813333 43.053786,79.28944 37.046311,68.799831 33.39404,62.423783 29.707635,56.047745 26.055363,49.637421 22.368958,43.19282 26.533231,35.34275 33.90604,34.96567 c 3.891206,-0.205679 6.894943,1.611156 8.874682,5.004854 2.696537,4.627766 5.35894,9.324103 8.055477,13.986153 1.945602,3.359422 3.822935,6.753118 5.802674,10.043977 2.867204,4.833453 7.099743,7.541553 12.73175,7.884348 7.953077,0.479926 15.36002,-5.313363 16.315755,-13.780467 0.06827,-0.617035 0.1024,-1.268355 0.136533,-1.576871 -0.03413,-2.742387 -0.546134,-5.073408 -1.638402,-7.233037 -2.969604,-5.964683 0.2048,-12.649246 6.656009,-14.088993 5.256541,-1.165515 10.717882,2.7081 11.400552,8.055749 0.34133,2.296744 -0.13653,4.456373 -1.29707,6.478877 z"
         style="display:inline;opacity:0.342949;fill:url(#linearGradient42);stroke-width:0.342065;filter:url(#filter49)"
         id="path43" /></g></g></svg>
