<?xml version="1.0" encoding="UTF-8" standalone="no"?>
<svg
   id="svg4379"
   height="128"
   width="128"
   version="1.1"
   xml:space="preserve"
   xmlns:xlink="http://www.w3.org/1999/xlink"
   xmlns="http://www.w3.org/2000/svg"
   xmlns:svg="http://www.w3.org/2000/svg"
   xmlns:rdf="http://www.w3.org/1999/02/22-rdf-syntax-ns#"
   xmlns:cc="http://creativecommons.org/ns#"
   xmlns:dc="http://purl.org/dc/elements/1.1/"><defs
     id="defs4381"><linearGradient
       id="linearGradient880"><stop
         style="stop-color:#cbcbcb;stop-opacity:1;"
         offset="0"
         id="stop876" /><stop
         style="stop-color:#a7a7a7;stop-opacity:1;"
         offset="1"
         id="stop878" /></linearGradient><linearGradient
       gradientTransform="matrix(2.7297298,0,0,2.7297298,-1.5135124,1.486514)"
       gradientUnits="userSpaceOnUse"
       xlink:href="#linearGradient3924-776"
       id="linearGradient3159"
       y2="43"
       x2="23.99999"
       y1="4.999989"
       x1="23.99999" /><linearGradient
       id="linearGradient3924-776"><stop
         offset="0"
         style="stop-color:#ffffff;stop-opacity:1"
         id="stop3124" /><stop
         offset="0.06316455"
         style="stop-color:#ffffff;stop-opacity:0.23529412"
         id="stop3126" /><stop
         offset="0.95056331"
         style="stop-color:#ffffff;stop-opacity:0.15686275"
         id="stop3128" /><stop
         offset="1"
         style="stop-color:#ffffff;stop-opacity:0.39215687"
         id="stop3130" /></linearGradient><radialGradient
       gradientTransform="matrix(2.003784,0,0,1.4,27.98813,-17.4)"
       gradientUnits="userSpaceOnUse"
       xlink:href="#linearGradient3688-166-749-5"
       id="radialGradient2455-1"
       fy="43.5"
       fx="4.9929786"
       r="2.5"
       cy="43.5"
       cx="4.9929786" /><linearGradient
       id="linearGradient3688-166-749-5"><stop
         offset="0"
         style="stop-color:#181818;stop-opacity:1"
         id="stop2883-0" /><stop
         offset="1"
         style="stop-color:#181818;stop-opacity:0"
         id="stop2885-5" /></linearGradient><radialGradient
       gradientTransform="matrix(2.003784,0,0,1.4,-20.01187,-104.4)"
       gradientUnits="userSpaceOnUse"
       xlink:href="#linearGradient3688-464-309-8"
       id="radialGradient2457-5"
       fy="43.5"
       fx="4.9929786"
       r="2.5"
       cy="43.5"
       cx="4.9929786" /><linearGradient
       id="linearGradient3688-464-309-8"><stop
         offset="0"
         style="stop-color:#181818;stop-opacity:1"
         id="stop2889-9" /><stop
         offset="1"
         style="stop-color:#181818;stop-opacity:0"
         id="stop2891-4" /></linearGradient><linearGradient
       gradientUnits="userSpaceOnUse"
       xlink:href="#linearGradient3702-501-757-0"
       id="linearGradient2459-7"
       y2="39.999443"
       x2="25.058096"
       y1="47.027729"
       x1="25.058096" /><linearGradient
       id="linearGradient3702-501-757-0"><stop
         offset="0"
         style="stop-color:#181818;stop-opacity:0"
         id="stop2895-0" /><stop
         offset="0.5"
         style="stop-color:#181818;stop-opacity:1"
         id="stop2897-2" /><stop
         offset="1"
         style="stop-color:#181818;stop-opacity:0"
         id="stop2899-6" /></linearGradient><linearGradient
       id="linearGradient3811"><stop
         offset="0"
         style="stop-color:#000000;stop-opacity:1"
         id="stop3813" /><stop
         offset="1"
         style="stop-color:#000000;stop-opacity:0"
         id="stop3815" /></linearGradient><radialGradient
       gradientTransform="matrix(1.5563924,0,0,0.16978827,70.270358,102.13029)"
       gradientUnits="userSpaceOnUse"
       xlink:href="#linearGradient3811"
       id="radialGradient4377"
       fy="93.467628"
       fx="-4.0287771"
       r="35.338131"
       cy="93.467628"
       cx="-4.0287771" /><linearGradient
       xlink:href="#linearGradient880"
       id="linearGradient882"
       x1="62.871635"
       y1="15.90732"
       x2="62.871635"
       y2="118.42699"
       gradientUnits="userSpaceOnUse" /><linearGradient
       id="linearGradient7276"><stop
         style="stop-color:#206b00;stop-opacity:1"
         offset="0"
         id="stop7272" /><stop
         style="stop-color:#002e99;stop-opacity:1"
         offset="1"
         id="stop7274" /></linearGradient><linearGradient
       y2="42.091705"
       x2="23.99999"
       y1="5.9093657"
       x1="23.99999"
       gradientTransform="matrix(1.4324324,0,0,1.4362832,-2.3783747,-2.4707827)"
       gradientUnits="userSpaceOnUse"
       id="linearGradient3904"
       xlink:href="#linearGradient4270" /><linearGradient
       id="linearGradient4270"><stop
         id="stop4272"
         style="stop-color:#ffffff;stop-opacity:1"
         offset="0" /><stop
         id="stop4274"
         style="stop-color:#ffffff;stop-opacity:0.23529412"
         offset="0.0348749" /><stop
         id="stop4276"
         style="stop-color:#ffffff;stop-opacity:0.15686275"
         offset="0.96216321" /><stop
         id="stop4278"
         style="stop-color:#ffffff;stop-opacity:0.39215687"
         offset="1" /></linearGradient><radialGradient
       cx="4.9929786"
       cy="43.5"
       r="2.5"
       fx="4.9929786"
       fy="43.5"
       id="radialGradient3337-2-2"
       xlink:href="#linearGradient3688-166-749-5"
       gradientUnits="userSpaceOnUse"
       gradientTransform="matrix(2.4045407,0,0,0.99999998,41.985755,15.500001)" /><radialGradient
       cx="4.9929786"
       cy="43.5"
       r="2.5"
       fx="4.9929786"
       fy="43.5"
       id="radialGradient3339-1-4"
       xlink:href="#linearGradient3688-166-749-5"
       gradientUnits="userSpaceOnUse"
       gradientTransform="matrix(2.4045407,0,0,0.99999998,-22.014244,-102.5)" /><linearGradient
       x1="25.058096"
       y1="47.027729"
       x2="25.058096"
       y2="39.999443"
       id="linearGradient6394"
       xlink:href="#linearGradient3702-501-757-0"
       gradientUnits="userSpaceOnUse"
       gradientTransform="matrix(1.5714286,0,0,0.7142857,-5.7142853,27.928572)" /><linearGradient
       xlink:href="#linearGradient854"
       id="linearGradient899"
       x1="31.781376"
       y1="4.9266648"
       x2="31.781376"
       y2="59.148476"
       gradientUnits="userSpaceOnUse" /><linearGradient
       id="linearGradient584"><stop
         style="stop-color:#9bdb4d;stop-opacity:1"
         offset="0"
         id="stop580" /><stop
         style="stop-color:#68b723;stop-opacity:1"
         offset="1"
         id="stop582" /></linearGradient><linearGradient
       id="linearGradient854"><stop
         style="stop-color:#64baff;stop-opacity:1"
         offset="0"
         id="stop850" /><stop
         style="stop-color:#3689e6;stop-opacity:1"
         offset="1"
         id="stop852" /></linearGradient><linearGradient
       xlink:href="#linearGradient7276"
       id="linearGradient1202"
       gradientUnits="userSpaceOnUse"
       gradientTransform="translate(-66.628688,2.4442062)"
       x1="71.033745"
       y1="1.8683437"
       x2="126.65769"
       y2="57.49229" /><linearGradient
       xlink:href="#linearGradient7276"
       id="linearGradient1217"
       x1="9.5805931"
       y1="10.073647"
       x2="55.145584"
       y2="55.638638"
       gradientUnits="userSpaceOnUse" /><linearGradient
       xlink:href="#linearGradient7276"
       id="linearGradient1064"
       gradientUnits="userSpaceOnUse"
       x1="9.5805931"
       y1="10.073647"
       x2="55.145584"
       y2="55.638638"
       gradientTransform="translate(0,-1)" /><linearGradient
       xlink:href="#linearGradient584"
       id="linearGradient458"
       gradientUnits="userSpaceOnUse"
       x1="23.528315"
       y1="6.08318"
       x2="23.528315"
       y2="44.23307"
       gradientTransform="matrix(1.4102564,0,0,1.4102564,-1.8461537,-3.2564096)" /><linearGradient
       xlink:href="#linearGradient584"
       id="linearGradient1"
       gradientUnits="userSpaceOnUse"
       gradientTransform="matrix(1.4102564,0,0,1.4102564,-1.8461537,-3.2564096)"
       x1="23.528315"
       y1="6.08318"
       x2="23.528315"
       y2="44.23307" /><linearGradient
       xlink:href="#linearGradient584"
       id="linearGradient2"
       gradientUnits="userSpaceOnUse"
       gradientTransform="matrix(1.4102564,0,0,1.4102564,-1.8461537,-3.2564096)"
       x1="23.528315"
       y1="6.08318"
       x2="23.528315"
       y2="44.23307" /><linearGradient
       xlink:href="#linearGradient584"
       id="linearGradient3"
       gradientUnits="userSpaceOnUse"
       gradientTransform="matrix(1.4102564,0,0,1.4102564,-1.8461537,-3.2564096)"
       x1="23.528315"
       y1="6.08318"
       x2="23.528315"
       y2="44.23307" /><linearGradient
       xlink:href="#linearGradient584"
       id="linearGradient4"
       gradientUnits="userSpaceOnUse"
       gradientTransform="matrix(1.4102564,0,0,1.4102564,-1.8461537,-3.2564096)"
       x1="23.528315"
       y1="6.08318"
       x2="23.528315"
       y2="44.23307" /><linearGradient
       xlink:href="#linearGradient584"
       id="linearGradient5"
       gradientUnits="userSpaceOnUse"
       gradientTransform="matrix(1.4102564,0,0,1.4102564,-1.8461537,-3.2564096)"
       x1="23.528315"
       y1="6.08318"
       x2="23.528315"
       y2="44.23307" /><linearGradient
       xlink:href="#linearGradient584"
       id="linearGradient6"
       gradientUnits="userSpaceOnUse"
       gradientTransform="matrix(1.4102564,0,0,1.4102564,-1.8461537,-3.2564096)"
       x1="23.528315"
       y1="6.08318"
       x2="23.528315"
       y2="44.23307" /><linearGradient
       xlink:href="#linearGradient584"
       id="linearGradient7"
       gradientUnits="userSpaceOnUse"
       gradientTransform="matrix(1.4102564,0,0,1.4102564,-1.8461537,-3.2564096)"
       x1="23.528315"
       y1="6.08318"
       x2="23.528315"
       y2="44.23307" /><linearGradient
       xlink:href="#linearGradient584"
       id="linearGradient8"
       gradientUnits="userSpaceOnUse"
       gradientTransform="matrix(1.4102564,0,0,1.4102564,-1.8461537,-3.2564096)"
       x1="23.528315"
       y1="6.08318"
       x2="23.528315"
       y2="44.23307" /><linearGradient
       xlink:href="#linearGradient584"
       id="linearGradient9"
       gradientUnits="userSpaceOnUse"
       gradientTransform="matrix(1.4102564,0,0,1.4102564,-1.8461537,-3.2564096)"
       x1="23.528315"
       y1="6.08318"
       x2="23.528315"
       y2="44.23307" /><linearGradient
       xlink:href="#linearGradient584"
       id="linearGradient10"
       gradientUnits="userSpaceOnUse"
       gradientTransform="matrix(1.4102564,0,0,1.4102564,-1.8461537,-3.2564096)"
       x1="23.528315"
       y1="6.08318"
       x2="23.528315"
       y2="44.23307" /><linearGradient
       xlink:href="#linearGradient584"
       id="linearGradient11"
       gradientUnits="userSpaceOnUse"
       gradientTransform="matrix(1.4102564,0,0,1.4102564,-1.8461537,-3.2564096)"
       x1="23.528315"
       y1="6.08318"
       x2="23.528315"
       y2="44.23307" /><linearGradient
       xlink:href="#linearGradient584"
       id="linearGradient12"
       gradientUnits="userSpaceOnUse"
       gradientTransform="matrix(1.4102564,0,0,1.4102564,-1.8461537,-3.2564096)"
       x1="23.528315"
       y1="6.08318"
       x2="23.528315"
       y2="44.23307" /><linearGradient
       xlink:href="#linearGradient7276"
       id="linearGradient13"
       gradientUnits="userSpaceOnUse"
       x1="9.5805931"
       y1="10.073647"
       x2="55.145584"
       y2="55.638638" /><linearGradient
       xlink:href="#linearGradient7276"
       id="linearGradient14"
       gradientUnits="userSpaceOnUse"
       gradientTransform="translate(0,-1)"
       x1="9.5805931"
       y1="10.073647"
       x2="55.145584"
       y2="55.638638" /></defs><metadata
     id="metadata4384"><rdf:RDF><cc:Work
         rdf:about=""><dc:format>image/svg+xml</dc:format><dc:type
           rdf:resource="http://purl.org/dc/dcmitype/StillImage" /><dc:title /></cc:Work></rdf:RDF></metadata><path
     d="M 119,118 A 55,6 0 0 1 9.0000016,118 55,6 0 1 1 119,118 Z"
     id="path3041"
     style="color:#000000;display:none;overflow:visible;visibility:visible;opacity:0.2;fill:url(#radialGradient4377);fill-opacity:1;fill-rule:nonzero;stroke:none;stroke-width:1;marker:none;enable-background:accumulate" /><g
     transform="matrix(2.6999989,0,0,0.55555607,-0.8000019,94.888882)"
     id="g2036"
     style="display:none"><g
       transform="matrix(1.052632,0,0,1.285713,-1.263158,-13.42854)"
       id="g3712"
       style="opacity:0.4"><rect
         width="5"
         height="7"
         x="38"
         y="40"
         id="rect2801"
         style="fill:url(#radialGradient2455-1);fill-opacity:1;stroke:none" /><rect
         width="5"
         height="7"
         x="-10"
         y="-47"
         transform="scale(-1)"
         id="rect3696"
         style="fill:url(#radialGradient2457-5);fill-opacity:1;stroke:none" /><rect
         width="28"
         height="7.0000005"
         x="10"
         y="40"
         id="rect3700"
         style="fill:url(#linearGradient2459-7);fill-opacity:1;stroke:none" /></g></g><rect
     width="103"
     height="103"
     rx="10"
     ry="10"
     x="12.5"
     y="15.5"
     id="rect5505-21-3"
     style="color:#000000;display:none;overflow:visible;visibility:visible;fill:url(#linearGradient882);fill-opacity:1;fill-rule:nonzero;stroke:none;stroke-width:1;marker:none;enable-background:accumulate" /><rect
     width="101"
     height="101"
     rx="9"
     ry="9"
     x="13.5"
     y="16.5"
     id="rect6741-7"
     style="display:none;opacity:0.3;fill:none;stroke:url(#linearGradient3159);stroke-width:1;stroke-linecap:round;stroke-linejoin:round;stroke-miterlimit:4;stroke-dasharray:none;stroke-dashoffset:0;stroke-opacity:1" /><rect
     width="103"
     height="103"
     rx="10"
     ry="10"
     x="12.5"
     y="15.5"
     id="rect5505-21-6"
     style="color:#000000;display:none;overflow:visible;visibility:visible;opacity:0.5;fill:none;stroke:#767676;stroke-width:1;stroke-linecap:round;stroke-linejoin:round;stroke-miterlimit:4;stroke-dasharray:none;stroke-dashoffset:0;stroke-opacity:1;marker:none;enable-background:accumulate" /><g
     id="g1"
     transform="matrix(1.875372,0,0,1.875372,4.2792615,6.5718708)"
     style="display:inline;opacity:0.938318"><g
       id="g866"><rect
         style="opacity:0.6;fill:url(#radialGradient3337-2-2);fill-opacity:1;stroke:none;stroke-width:1.06199"
         id="rect2801-5-5-7-9"
         y="56.5"
         x="54"
         height="5"
         width="6" /><rect
         style="opacity:0.6;fill:url(#radialGradient3339-1-4);fill-opacity:1;stroke:none;stroke-width:1.06199"
         id="rect3696-3-0-3-7"
         transform="scale(-1)"
         y="-61.5"
         x="-10"
         height="5"
         width="6" /><rect
         style="opacity:0.6;fill:url(#linearGradient6394);fill-opacity:1;stroke:none;stroke-width:1.06199"
         id="rect3700-5-6-8-4"
         y="56.5"
         x="10"
         height="5.0000005"
         width="44" /></g><rect
       width="55"
       height="55"
       rx="6"
       ry="6"
       x="4.5"
       y="4.5"
       id="rect5505-21-3-8-5-2-9"
       style="color:#000000;display:inline;overflow:visible;visibility:visible;fill:url(#linearGradient899);fill-opacity:1;fill-rule:nonzero;stroke:none;stroke-width:1;marker:none;enable-background:accumulate" /><path
       id="rect532"
       style="font-variation-settings:normal;fill:url(#linearGradient1);fill-opacity:1;stroke:none;stroke-width:1;stroke-linecap:butt;stroke-linejoin:miter;stroke-miterlimit:4;stroke-dasharray:none;stroke-dashoffset:0;stroke-opacity:0.5;marker:none;stop-color:#000000"
       d="M 10.141026,4.5 C 7.0159002,4.5 4.5,7.0159003 4.5,10.141026 v 7.75641 H 17.897436 V 4.5 Z" /><path
       id="rect532-3"
       style="font-variation-settings:normal;opacity:0.8;fill:url(#linearGradient2);fill-opacity:1;stroke:none;stroke-width:1;stroke-linecap:butt;stroke-linejoin:miter;stroke-miterlimit:4;stroke-dasharray:none;stroke-dashoffset:0;stroke-opacity:0.5;marker:none;stop-color:#000000"
       d="M 17.897436,4.5 V 17.897436 H 32 V 4.5 Z" /><path
       id="rect532-6"
       style="font-variation-settings:normal;opacity:0.6;fill:url(#linearGradient3);fill-opacity:1;stroke:none;stroke-width:1;stroke-linecap:butt;stroke-linejoin:miter;stroke-miterlimit:4;stroke-dasharray:none;stroke-dashoffset:0;stroke-opacity:0.5;marker:none;stop-color:#000000"
       d="M 32,4.5 V 17.897436 H 46.102564 V 4.5 Z" /><path
       id="rect532-3-7"
       style="font-variation-settings:normal;opacity:0.4;fill:url(#linearGradient4);fill-opacity:1;stroke:none;stroke-width:1;stroke-linecap:butt;stroke-linejoin:miter;stroke-miterlimit:4;stroke-dasharray:none;stroke-dashoffset:0;stroke-opacity:0.5;marker:none;stop-color:#000000"
       d="M 46.102564,4.5 V 17.897436 H 59.5 v -7.75641 C 59.5,7.0159003 56.984097,4.5 53.858975,4.5 Z" /><path
       id="rect532-5"
       style="font-variation-settings:normal;opacity:0.8;fill:url(#linearGradient5);fill-opacity:1;stroke:none;stroke-width:1;stroke-linecap:butt;stroke-linejoin:miter;stroke-miterlimit:4;stroke-dasharray:none;stroke-dashoffset:0;stroke-opacity:0.5;marker:none;stop-color:#000000"
       d="M 4.5,17.897436 V 32 H 17.897436 V 17.897436 Z" /><rect
       style="font-variation-settings:normal;opacity:0.6;fill:url(#linearGradient6);fill-opacity:1;stroke:none;stroke-width:1;stroke-linecap:butt;stroke-linejoin:miter;stroke-miterlimit:4;stroke-dasharray:none;stroke-dashoffset:0;stroke-opacity:0.5;marker:none;stop-color:#000000"
       id="rect532-3-3"
       width="14.102564"
       height="14.102564"
       x="17.897459"
       y="17.897432"
       rx="0"
       ry="0" /><rect
       style="font-variation-settings:normal;opacity:0.4;fill:url(#linearGradient7);fill-opacity:1;stroke:none;stroke-width:1;stroke-linecap:butt;stroke-linejoin:miter;stroke-miterlimit:4;stroke-dasharray:none;stroke-dashoffset:0;stroke-opacity:0.5;marker:none;stop-color:#000000"
       id="rect532-6-5"
       width="14.102564"
       height="14.102564"
       x="32.000023"
       y="17.897432"
       rx="0"
       ry="0" /><path
       id="rect532-3-7-6"
       style="font-variation-settings:normal;opacity:0.2;fill:url(#linearGradient8);fill-opacity:1;stroke:none;stroke-width:1;stroke-linecap:butt;stroke-linejoin:miter;stroke-miterlimit:4;stroke-dasharray:none;stroke-dashoffset:0;stroke-opacity:0.5;marker:none;stop-color:#000000"
       d="M 46.102564,17.897436 V 32 H 59.5 V 17.897436 Z" /><path
       id="rect532-5-2"
       style="font-variation-settings:normal;opacity:0.6;fill:url(#linearGradient9);fill-opacity:1;stroke:none;stroke-width:1;stroke-linecap:butt;stroke-linejoin:miter;stroke-miterlimit:4;stroke-dasharray:none;stroke-dashoffset:0;stroke-opacity:0.5;marker:none;stop-color:#000000"
       d="M 4.5,32 V 46.102565 H 17.897436 V 32 Z" /><rect
       style="font-variation-settings:normal;opacity:0.4;fill:url(#linearGradient10);fill-opacity:1;stroke:none;stroke-width:1;stroke-linecap:butt;stroke-linejoin:miter;stroke-miterlimit:4;stroke-dasharray:none;stroke-dashoffset:0;stroke-opacity:0.5;marker:none;stop-color:#000000"
       id="rect532-3-3-9"
       width="14.102564"
       height="14.102564"
       x="17.897459"
       y="31.999996"
       rx="0"
       ry="0" /><rect
       style="font-variation-settings:normal;opacity:0.2;fill:url(#linearGradient11);fill-opacity:1;stroke:none;stroke-width:1;stroke-linecap:butt;stroke-linejoin:miter;stroke-miterlimit:4;stroke-dasharray:none;stroke-dashoffset:0;stroke-opacity:0.5;marker:none;stop-color:#000000"
       id="rect532-6-5-1"
       width="14.102564"
       height="14.102564"
       x="32.000023"
       y="31.999996"
       rx="0"
       ry="0" /><path
       id="rect532-5-2-7"
       style="font-variation-settings:normal;opacity:0.4;fill:url(#linearGradient12);fill-opacity:1;stroke:none;stroke-width:1;stroke-linecap:butt;stroke-linejoin:miter;stroke-miterlimit:4;stroke-dasharray:none;stroke-dashoffset:0;stroke-opacity:0.5;marker:none;stop-color:#000000"
       d="m 4.5,46.102565 v 7.75641 c 0,3.125127 2.5159002,5.641024 5.641026,5.641024 h 7.75641 V 46.102565 Z" /><path
       id="rect532-3-3-9-0"
       style="font-variation-settings:normal;opacity:0.2;fill:url(#linearGradient458);fill-opacity:1;stroke:none;stroke-width:1;stroke-linecap:butt;stroke-linejoin:miter;stroke-miterlimit:4;stroke-dasharray:none;stroke-dashoffset:0;stroke-opacity:0.5;marker:none;stop-color:#000000"
       d="M 17.897436,46.102565 V 59.499999 H 32 V 46.102565 Z" /><path
       id="path918-0-2"
       style="font-variation-settings:normal;opacity:0.07;vector-effect:none;fill:url(#linearGradient13);fill-opacity:1;stroke:none;stroke-width:1;stroke-linecap:butt;stroke-linejoin:miter;stroke-miterlimit:4;stroke-dasharray:none;stroke-dashoffset:0;stroke-opacity:0.5;-inkscape-stroke:none;marker:none;stop-color:#000000"
       d="m 31.019531,9.8007812 c -0.638021,3.1438798 -1.276041,6.2877608 -1.914062,9.4316408 -1.925567,0.396694 -3.766868,1.223802 -5.341797,2.40039 -2.521296,-1.478186 -5.042656,-2.956263 -7.564453,-4.433593 1.47733,2.521797 2.955407,5.043157 4.433593,7.564453 -1.174981,1.575715 -2.00535,3.41557 -2.40039,5.341797 -3.267731,0.69105 -6.562758,1.27598 -9.8133819,2.033535 C 7.5020163,32.426003 6.5849925,32.713001 5.6679688,33 c 1.863689,0.615567 3.7396761,1.183323 5.6808712,1.497573 2.294527,0.465653 4.589055,0.931306 6.883582,1.396958 0.396694,1.925567 1.223802,3.766868 2.40039,5.341797 -1.478186,2.521296 -2.956263,5.042656 -4.433593,7.564453 2.521797,-1.47733 5.043157,-2.955407 7.564453,-4.433593 1.575715,1.174981 3.41557,2.00535 5.341797,2.40039 0.69105,3.267731 1.27598,6.562758 2.033535,9.813382 0.286999,0.917024 0.573997,1.834047 0.860996,2.751071 0.615567,-1.863689 1.183323,-3.739676 1.497573,-5.680871 0.465653,-2.294527 0.931306,-4.589055 1.396958,-6.883582 1.925567,-0.396694 3.766868,-1.223802 5.341797,-2.40039 2.521296,1.478186 5.042656,2.956263 7.564453,4.433593 -1.47733,-2.521797 -2.955407,-5.043157 -4.433593,-7.564453 1.174981,-1.575715 2.00535,-3.41557 2.40039,-5.341797 3.267731,-0.69105 6.562758,-1.27598 9.813382,-2.033535 C 56.497984,33.573997 57.415007,33.286999 58.332031,33 56.46834,32.384446 54.592354,31.816682 52.651182,31.502316 50.360554,31.037352 48.069925,30.572387 45.779297,30.107422 45.384338,28.176245 44.554036,26.33115 43.375,24.751953 44.849956,22.235229 46.324793,19.718435 47.798828,17.201172 45.281565,18.675208 42.764771,20.150044 40.248047,21.625 38.668078,20.447541 36.824402,19.61404 34.892578,19.220703 34.202115,15.956896 33.61796,12.66574 32.860996,9.4190401 32.573997,8.5020163 32.286999,7.5849925 32,6.6679688 31.673177,7.7122396 31.346354,8.7565104 31.019531,9.8007812 Z m 1.414063,14.2109378 c 3.909881,0.127304 7.491037,3.104595 8.324599,6.927223 0.86639,3.546862 -0.690253,7.513746 -3.744456,9.516873 -3.102386,2.145351 -7.567811,2.012875 -10.509783,-0.360825 -2.849656,-2.126824 -4.13579,-6.043906 -3.175916,-9.459236 0.938784,-3.575685 4.278376,-6.373061 7.981375,-6.582799 0.374701,-0.02523 0.748255,-0.06845 1.124181,-0.04124 z" /><path
       id="path918-0"
       style="font-variation-settings:normal;opacity:0.15;vector-effect:none;fill:url(#linearGradient1217);fill-opacity:1;stroke:none;stroke-width:1;stroke-linecap:butt;stroke-linejoin:miter;stroke-miterlimit:4;stroke-dasharray:none;stroke-dashoffset:0;stroke-opacity:0.5;-inkscape-stroke:none;marker:none;stop-color:#000000"
       d="m 32.000001,10 -2.042969,10.0625 a 13.110333,13.110333 0 0 0 -6.142579,2.759765 L 19,20 21.822266,24.814453 A 13.110333,13.110333 0 0 0 19.0625,30.957031 L 9,33 19.0625,35.042968 a 13.110333,13.110333 0 0 0 2.759766,6.142578 L 19,46 23.814453,43.177734 A 13.110333,13.110333 0 0 0 29.957032,45.9375 L 32.000001,56 34.042968,45.9375 a 13.110333,13.110333 0 0 0 6.142579,-2.759766 L 45,46 42.177734,41.185546 A 13.110333,13.110333 0 0 0 44.9375,35.042968 L 55,33 44.949219,30.958984 a 13.110333,13.110333 0 0 0 -2.763672,-6.15625 L 45,20 40.197266,22.814453 a 13.110333,13.110333 0 0 0 -6.15625,-2.763672 z m 0,12.999999 A 10,10 0 0 1 41.999999,33 10,10 0 0 1 32.000001,43 10,10 0 0 1 22,33 10,10 0 0 1 32.000001,22.999999 Z" /><path
       id="path918"
       style="font-variation-settings:normal;opacity:1;vector-effect:none;fill:#fafafa;fill-opacity:1;stroke:none;stroke-width:0.707893;stroke-linecap:butt;stroke-linejoin:miter;stroke-miterlimit:4;stroke-dasharray:none;stroke-dashoffset:0;stroke-opacity:0.5;-inkscape-stroke:none;marker:none;stop-color:#000000;stop-opacity:1"
       d="m 47.410313,14.949072 -1.446204,7.123176 a 9.280717,9.280717 0 0 0 -4.34829,1.953619 l -3.408119,-1.997862 1.997863,3.408119 a 9.280717,9.280717 0 0 0 -1.95362,4.348289 l -7.123176,1.446204 7.123176,1.446204 a 9.280717,9.280717 0 0 0 1.95362,4.34829 L 38.2077,40.43323 41.615819,38.435367 a 9.280717,9.280717 0 0 0 4.34829,1.95362 l 1.446204,7.123176 1.446203,-7.123176 a 9.280717,9.280717 0 0 0 4.34829,-1.95362 l 3.408119,1.997863 -1.997863,-3.408119 a 9.280717,9.280717 0 0 0 1.95362,-4.34829 l 7.123176,-1.446204 -7.11488,-1.444821 a 9.280717,9.280717 0 0 0 -1.956385,-4.357968 l 1.992332,-3.399823 -3.399823,1.992332 a 9.280717,9.280717 0 0 0 -4.357968,-1.956385 z m 0,9.202612 a 7.0789329,7.0789329 0 0 1 7.078932,7.078933 7.0789329,7.0789329 0 0 1 -7.078932,7.078933 7.0789329,7.0789329 0 0 1 -7.078933,-7.078933 7.0789329,7.0789329 0 0 1 7.078933,-7.078933 z"
       transform="matrix(1.4126423,0,0,1.4126423,-34.973813,-12.117691)" /><path
       id="path918-0-3"
       style="font-variation-settings:normal;opacity:0.15;vector-effect:none;fill:url(#linearGradient14);fill-opacity:1;stroke:none;stroke-width:1;stroke-linecap:butt;stroke-linejoin:miter;stroke-miterlimit:4;stroke-dasharray:none;stroke-dashoffset:0;stroke-opacity:0.5;-inkscape-stroke:none;marker:none;stop-color:#000000"
       d="m 19,19 2.507812,4.279297 a 13.110333,13.110333 0 0 1 0.314454,-0.464844 l -1.929688,-3.291015 z m 26,0 -0.892578,0.523438 -1.921875,3.279296 A 13.110333,13.110333 0 0 1 42.5,23.265625 Z M 32,21 A 10,10 0 0 0 22,31 10,10 0 0 0 22.056641,31.5 10,10 0 0 1 32,22 10,10 0 0 1 41.972656,31.248047 10,10 0 0 0 42,31 10,10 0 0 0 32,21 Z M 11.462891,31.5 9,32 19.0625,34.042969 a 13.110333,13.110333 0 0 0 2.445312,5.677734 l 0.314454,-0.535156 A 13.110333,13.110333 0 0 1 19.0625,33.042969 Z m 41.074218,0 -7.599609,1.542969 a 13.110333,13.110333 0 0 1 -2.759766,6.142578 l 0.314454,0.535156 A 13.110333,13.110333 0 0 0 44.9375,34.042969 L 55,32 Z M 23.814453,41.177734 19.892578,43.476562 19,45 23.814453,42.177734 A 13.110333,13.110333 0 0 0 29.957031,44.9375 L 32,55 34.042969,44.9375 a 13.110333,13.110333 0 0 0 6.142578,-2.759766 L 45,45 44.107422,43.476562 40.185547,41.177734 A 13.110333,13.110333 0 0 1 34.042969,43.9375 L 32,54 29.957031,43.9375 a 13.110333,13.110333 0 0 1 -6.142578,-2.759766 z" /><path
       id="path918-0-3-2"
       style="font-variation-settings:normal;opacity:0.05;vector-effect:none;fill:url(#linearGradient1064);fill-opacity:1;stroke:none;stroke-width:1;stroke-linecap:butt;stroke-linejoin:miter;stroke-miterlimit:4;stroke-dasharray:none;stroke-dashoffset:0;stroke-opacity:0.5;-inkscape-stroke:none;marker:none;stop-color:#000000"
       d="m 19,19 2.822266,4.814453 a 13.110333,13.110333 0 0 0 -0.621094,0.917969 c 0.08234,0.140442 0.163743,0.281437 0.246094,0.421875 0.518762,-0.767657 1.038162,-1.534886 1.55664,-2.302735 -0.459857,-0.74709 -0.891195,-1.523146 -1.333984,-2.287109 z m 26,0 -2.658203,1.556641 c -0.44638,0.76137 -0.892715,1.52308 -1.337891,2.285156 0.516714,0.766883 1.038707,1.530191 1.558594,2.294922 0.08163,-0.139176 0.162516,-0.278789 0.244141,-0.417969 a 13.110333,13.110333 0 0 0 -0.621094,-0.916016 z m -13.070312,1.001953 c -3.020863,0.03581 -6.003156,1.33621 -8.033204,3.582031 -1.921967,2.097151 -3.017449,4.980048 -2.857422,7.828125 0.23178,0.938655 0.685998,1.822207 1.001954,2.740235 0.04809,-0.131262 0.10409,-0.260413 0.15625,-0.390625 A 10,10 0 0 1 22,32 10,10 0 0 1 32,22 10,10 0 0 1 42,32 10,10 0 0 1 41.832031,33.492188 l 0.195313,0.482421 c 0.345238,-1.24131 1.15861,-2.418732 0.943359,-3.751953 -0.253718,-4.485781 -3.559245,-8.583639 -7.890625,-9.779297 -1.019848,-0.302091 -2.08724,-0.448205 -3.15039,-0.441406 z M 13.984375,30.988281 9,32 19.0625,34.042969 a 13.110333,13.110333 0 0 0 2.759766,6.142578 l -0.560547,0.955078 c 0.19658,0.270641 -0.03521,0.44129 -0.347657,0.59375 L 19,45 23.814453,42.177734 A 13.110333,13.110333 0 0 0 29.957031,44.9375 L 32,55 34.042969,44.9375 a 13.110333,13.110333 0 0 0 6.142578,-2.759766 L 45,45 43.072266,41.708984 c -0.167163,-0.09792 -0.33488,-0.194897 -0.501954,-0.292968 0.05911,-0.08668 0.116651,-0.174887 0.175782,-0.261719 l -0.56836,-0.96875 A 13.110333,13.110333 0 0 0 44.9375,34.042969 L 55,32 50.013672,30.988281 c -1.610201,0.323135 -3.21974,0.676166 -4.830078,0.984375 -0.558049,0.126597 -1.300177,0.06479 -1.220703,0.845703 -0.369621,2.148582 -1.304611,4.167431 -2.660157,5.871094 -0.63516,0.47567 0.115593,1.008429 0.31836,1.519531 0.231259,0.439158 0.950638,1.367431 0.0625,0.6875 -0.516748,-0.302785 -1.033351,-0.606584 -1.550782,-0.908203 -1.691892,1.301706 -3.569715,2.441089 -5.697265,2.832031 -0.490766,0.217444 -1.415516,0.01135 -1.34375,0.777344 -0.364114,1.791062 -0.72797,3.581926 -1.091797,5.373047 -0.397333,-1.954385 -0.79281,-3.909154 -1.191406,-5.863281 -2.127569,-0.401194 -4.250777,-1.073315 -5.972656,-2.431641 -0.488626,-0.282837 -0.958169,-0.991319 -1.486329,-0.384765 -0.516815,0.302668 -1.034027,0.605428 -1.550781,0.908203 0.403665,-0.688522 0.807081,-1.377193 1.212891,-2.064453 -1.299939,-1.693779 -2.441576,-3.570721 -2.832031,-5.699219 -0.217444,-0.490766 -0.01135,-1.415516 -0.777344,-1.34375 -1.806397,-0.348425 -3.611617,-0.743593 -5.417969,-1.103516 z" /><rect
       style="color:#000000;font-variation-settings:normal;display:inline;overflow:visible;visibility:visible;opacity:1;vector-effect:none;fill:none;fill-opacity:1;stroke:url(#linearGradient1202);stroke-width:1;stroke-linecap:butt;stroke-linejoin:miter;stroke-miterlimit:4;stroke-dasharray:none;stroke-dashoffset:0;stroke-opacity:0.5;-inkscape-stroke:none;marker:none;enable-background:accumulate;stop-color:#000000;stop-opacity:1"
       id="rect5505-21-9"
       y="4.5"
       x="4.5"
       ry="6"
       rx="6"
       height="55"
       width="55" /><rect
       style="opacity:0.35;fill:none;stroke:url(#linearGradient3904);stroke-width:1;stroke-linecap:round;stroke-linejoin:round;stroke-miterlimit:4;stroke-dasharray:none;stroke-dashoffset:0;stroke-opacity:1"
       id="rect6741"
       y="5.428761"
       x="5.5"
       ry="5"
       rx="5"
       height="53.142479"
       width="53" /></g></svg>
