<?xml version="1.0" encoding="UTF-8" standalone="no"?>
<svg
   version="1.1"
   width="48"
   height="48"
   id="svg6649"
   sodipodi:docname="accessories-text-editor.svg"
   inkscape:version="1.0.1 (3bc2e813f5, 2020-09-07)"
   xmlns:inkscape="http://www.inkscape.org/namespaces/inkscape"
   xmlns:sodipodi="http://sodipodi.sourceforge.net/DTD/sodipodi-0.dtd"
   xmlns:xlink="http://www.w3.org/1999/xlink"
   xmlns="http://www.w3.org/2000/svg"
   xmlns:svg="http://www.w3.org/2000/svg"
   xmlns:rdf="http://www.w3.org/1999/02/22-rdf-syntax-ns#"
   xmlns:cc="http://creativecommons.org/ns#"
   xmlns:dc="http://purl.org/dc/elements/1.1/">
  <sodipodi:namedview
     pagecolor="#ffffff"
     bordercolor="#666666"
     borderopacity="1"
     objecttolerance="10"
     gridtolerance="10"
     guidetolerance="10"
     inkscape:pageopacity="0"
     inkscape:pageshadow="2"
     inkscape:window-width="2560"
     inkscape:window-height="1373"
     id="namedview35"
     showgrid="false"
     inkscape:zoom="21"
     inkscape:cx="24"
     inkscape:cy="24"
     inkscape:window-x="0"
     inkscape:window-y="30"
     inkscape:window-maximized="1"
     inkscape:current-layer="svg6649"
     inkscape:document-rotation="0"
     inkscape:showpageshadow="2"
     inkscape:pagecheckerboard="0"
     inkscape:deskcolor="#d1d1d1">
    <inkscape:grid
       type="xygrid"
       id="grid855"
       empspacing="4"
       originx="0"
       originy="0"
       spacingy="1"
       spacingx="1"
       units="px"
       visible="false" />
    <inkscape:grid
       type="xygrid"
       id="grid857"
       empspacing="2"
       spacingy="0.5"
       spacingx="0.5"
       dotted="true"
       originx="0"
       originy="0"
       units="px"
       visible="false" />
    <inkscape:page
       x="0"
       y="0"
       width="48"
       height="48"
       id="page2"
       margin="0"
       bleed="0" />
  </sodipodi:namedview>
  <defs
     id="defs6651">
    <linearGradient
       id="linearGradient1201">
      <stop
         id="stop1193"
         style="stop-color:#ffffff;stop-opacity:1"
         offset="0" />
      <stop
         id="stop1195"
         style="stop-color:#ffffff;stop-opacity:0.23529412"
         offset="0.06781636" />
      <stop
         id="stop1197"
         style="stop-color:#ffffff;stop-opacity:0.15686275"
         offset="0.94694352" />
      <stop
         id="stop1199"
         style="stop-color:#ffffff;stop-opacity:0.39215687"
         offset="1" />
    </linearGradient>
    <linearGradient
       id="linearGradient854">
      <stop
         style="stop-color:#eeeeee;stop-opacity:1;"
         offset="0"
         id="stop850" />
      <stop
         style="stop-color:#dbdbdb;stop-opacity:1;"
         offset="1"
         id="stop852" />
    </linearGradient>
    <linearGradient
       id="linearGradient3688-166-749">
      <stop
         id="stop2883"
         style="stop-color:#181818;stop-opacity:1"
         offset="0" />
      <stop
         id="stop2885"
         style="stop-color:#181818;stop-opacity:0"
         offset="1" />
    </linearGradient>
    <linearGradient
       id="linearGradient3702-501-757">
      <stop
         id="stop2895"
         style="stop-color:#181818;stop-opacity:0"
         offset="0" />
      <stop
         id="stop2897"
         style="stop-color:#181818;stop-opacity:1"
         offset="0.5" />
      <stop
         id="stop2899"
         style="stop-color:#181818;stop-opacity:0"
         offset="1" />
    </linearGradient>
    <radialGradient
       cx="4.9929786"
       cy="43.5"
       r="2.5"
       fx="4.9929786"
       fy="43.5"
       id="radialGradient3013-6"
       xlink:href="#linearGradient3688-166-749"
       gradientUnits="userSpaceOnUse"
       gradientTransform="matrix(2.003784,0,0,0.89999994,29.98813,4.8500025)" />
    <radialGradient
       cx="4.9929786"
       cy="43.5"
       r="2.5"
       fx="4.9929786"
       fy="43.5"
       id="radialGradient3015-1"
       xlink:href="#linearGradient3688-166-749"
       gradientUnits="userSpaceOnUse"
       gradientTransform="matrix(2.003784,0,0,0.89999994,-18.01187,-83.149997)" />
    <linearGradient
       xlink:href="#linearGradient854"
       id="linearGradient856-2"
       x1="23.528315"
       y1="6.08318"
       x2="23.528315"
       y2="44.23307"
       gradientUnits="userSpaceOnUse" />
    <linearGradient
       x1="38.999996"
       y1="5.9999938"
       x2="38.999996"
       y2="41.945408"
       id="linearGradient3058-5"
       xlink:href="#linearGradient1201"
       gradientUnits="userSpaceOnUse"
       gradientTransform="translate(4e-6,1.0000062)" />
    <linearGradient
       xlink:href="#linearGradient3702-501-757"
       id="linearGradient1191"
       gradientUnits="userSpaceOnUse"
       x1="25.058096"
       y1="47.027729"
       x2="25.058096"
       y2="39.999443"
       gradientTransform="matrix(1.1428571,0,0,0.6428571,-3.428569,16.035716)" />
    <linearGradient
       gradientTransform="matrix(0.74988705,-0.7535631,1.010366,1.0053389,-12.904902,13.528092)"
       gradientUnits="userSpaceOnUse"
       xlink:href="#linearGradient3290-678"
       id="linearGradient3087"
       y2="26.02973"
       x2="9"
       y1="29.056757"
       x1="9" />
    <linearGradient
       id="linearGradient3290-678">
      <stop
         offset="0"
         style="stop-color:#fff394;stop-opacity:1"
         id="stop2607" />
      <stop
         offset="1"
         style="stop-color:#fafafa;stop-opacity:1"
         id="stop2609" />
    </linearGradient>
    <linearGradient
       gradientTransform="matrix(0.65862742,0.02842739,0.02839241,0.65781505,14.372604,9.2656601)"
       gradientUnits="userSpaceOnUse"
       xlink:href="#linearGradient3191-577"
       id="linearGradient3089"
       y2="41.391716"
       x2="9.5220556"
       y1="37.371799"
       x1="5.5178981" />
    <linearGradient
       id="linearGradient3191-577">
      <stop
         offset="0"
         style="stop-color:#d48e15;stop-opacity:1"
         id="stop2613" />
      <stop
         offset="1"
         style="stop-color:#ad5f00;stop-opacity:1"
         id="stop2615" />
    </linearGradient>
    <linearGradient
       gradientTransform="matrix(0.74988705,-0.7535631,1.0103658,1.0053388,-11.338675,11.954189)"
       gradientUnits="userSpaceOnUse"
       xlink:href="#linearGradient3223-699"
       id="linearGradient3092"
       y2="30.000141"
       x2="30.037716"
       y1="24.989594"
       x1="30.037716" />
    <linearGradient
       id="linearGradient3223-699">
      <stop
         offset="0"
         style="stop-color:#abacae;stop-opacity:1"
         id="stop2599" />
      <stop
         offset="0.5"
         style="stop-color:#fafafa;stop-opacity:1"
         id="stop2601" />
      <stop
         offset="1"
         style="stop-color:#abacae;stop-opacity:1"
         id="stop2603" />
    </linearGradient>
    <linearGradient
       gradientTransform="matrix(0.74988705,-0.7535631,1.0103658,1.0053388,-11.123917,11.738379)"
       gradientUnits="userSpaceOnUse"
       xlink:href="#linearGradient3240-907"
       id="linearGradient3095"
       y2="30.000141"
       x2="30.037716"
       y1="24.989594"
       x1="30.037716" />
    <linearGradient
       id="linearGradient3240-907">
      <stop
         offset="0"
         style="stop-color:#555761;stop-opacity:1"
         id="stop2591" />
      <stop
         offset="0.5"
         style="stop-color:#abacae;stop-opacity:1"
         id="stop2593" />
      <stop
         offset="1"
         style="stop-color:#555761;stop-opacity:1"
         id="stop2595" />
    </linearGradient>
    <linearGradient
       gradientTransform="matrix(0.74988705,-0.7535631,1.0103658,1.0053388,-12.088563,12.70775)"
       gradientUnits="userSpaceOnUse"
       xlink:href="#linearGradient3223-699"
       id="linearGradient3098"
       y2="30.000141"
       x2="30.037716"
       y1="24.989594"
       x1="30.037716" />
    <linearGradient
       gradientTransform="matrix(0.74988705,-0.7535631,1.0103658,1.0053388,-11.873803,12.491942)"
       gradientUnits="userSpaceOnUse"
       xlink:href="#linearGradient3240-907"
       id="linearGradient3101"
       y2="30.000141"
       x2="30.037716"
       y1="24.989594"
       x1="30.037716" />
    <linearGradient
       gradientTransform="matrix(0.74988705,-0.7535631,1.0103658,1.0053388,-12.834841,13.457691)"
       gradientUnits="userSpaceOnUse"
       xlink:href="#linearGradient3223-699"
       id="linearGradient3105"
       y2="30.000141"
       x2="30.037716"
       y1="24.989594"
       x1="30.037716" />
    <linearGradient
       gradientTransform="matrix(0.74988705,-0.7535631,1.0103658,1.0053388,-12.620082,13.241881)"
       gradientUnits="userSpaceOnUse"
       xlink:href="#linearGradient3240-907"
       id="linearGradient3108"
       y2="30.000141"
       x2="30.037716"
       y1="24.989594"
       x1="30.037716" />
    <linearGradient
       spreadMethod="pad"
       y2="31.210939"
       x2="23.575972"
       y1="25.356892"
       x1="23.575972"
       gradientTransform="matrix(0.77170214,-0.77548503,0.86332594,0.85903047,-9.7921124,17.209979)"
       gradientUnits="userSpaceOnUse"
       id="linearGradient937"
       xlink:href="#linearGradient3155-40" />
    <linearGradient
       id="linearGradient3155-40">
      <stop
         offset="0"
         style="stop-color:#555761;stop-opacity:1"
         id="stop2541" />
      <stop
         offset="0.13482948"
         style="stop-color:#d4d4d4;stop-opacity:1"
         id="stop2543" />
      <stop
         offset="0.20224422"
         style="stop-color:#abacae;stop-opacity:1"
         id="stop2545" />
      <stop
         offset="0.26965895"
         style="stop-color:#fafafa;stop-opacity:1"
         id="stop2547" />
      <stop
         offset="0.44650277"
         style="stop-color:#abacae;stop-opacity:1"
         id="stop2549" />
      <stop
         offset="0.57114136"
         style="stop-color:#abacae;stop-opacity:1"
         id="stop2551" />
      <stop
         offset="0.72038066"
         style="stop-color:#d4d4d4;stop-opacity:1"
         id="stop2553" />
      <stop
         offset="1"
         style="stop-color:#555761;stop-opacity:1"
         id="stop2555" />
    </linearGradient>
    <linearGradient
       spreadMethod="pad"
       gradientTransform="matrix(0.77170214,-0.77548503,0.86332594,0.85903047,-9.7921124,17.209979)"
       gradientUnits="userSpaceOnUse"
       xlink:href="#linearGradient958"
       id="linearGradient3113"
       y2="31.210939"
       x2="23.575972"
       y1="25.356892"
       x1="23.575972" />
    <linearGradient
       id="linearGradient958">
      <stop
         id="stop942"
         style="stop-color:#ad5f00;stop-opacity:1"
         offset="0" />
      <stop
         id="stop944"
         style="stop-color:#ffe16b;stop-opacity:1"
         offset="0.13482948" />
      <stop
         id="stop946"
         style="stop-color:#f9c440;stop-opacity:1"
         offset="0.20224422" />
      <stop
         id="stop948"
         style="stop-color:#fff394;stop-opacity:1"
         offset="0.26965895" />
      <stop
         id="stop950"
         style="stop-color:#f9c440;stop-opacity:1"
         offset="0.44650277" />
      <stop
         id="stop952"
         style="stop-color:#f9c440;stop-opacity:1"
         offset="0.57114136" />
      <stop
         id="stop954"
         style="stop-color:#ffe16b;stop-opacity:1"
         offset="0.72038066" />
      <stop
         id="stop956"
         style="stop-color:#ad5f00;stop-opacity:1"
         offset="1" />
    </linearGradient>
    <linearGradient
       gradientTransform="matrix(2.9347881,0,0,2.9347881,-5.8799605,-9.0977715)"
       gradientUnits="userSpaceOnUse"
       xlink:href="#linearGradient3104"
       id="linearGradient3117"
       y2="3.0718794"
       x2="22.004084"
       y1="44.854229"
       x1="22.004084" />
    <linearGradient
       id="linearGradient3104">
      <stop
         offset="0"
         style="stop-color:#a0a0a0;stop-opacity:1"
         id="stop3106" />
      <stop
         offset="1"
         style="stop-color:#c8c8c8;stop-opacity:1"
         id="stop3108" />
    </linearGradient>
  </defs>
  <metadata
     id="metadata6654">
    <rdf:RDF>
      <cc:Work
         rdf:about="">
        <dc:format>image/svg+xml</dc:format>
        <dc:type
           rdf:resource="http://purl.org/dc/dcmitype/StillImage" />
        <dc:title />
      </cc:Work>
    </rdf:RDF>
  </metadata>
  <rect
     style="opacity:0.6;fill:url(#radialGradient3013-6);fill-opacity:1;stroke:none;stroke-width:0.862764"
     id="rect2801-3-7"
     y="41.75"
     x="40"
     height="4.4999995"
     width="5" />
  <rect
     style="opacity:0.6;fill:url(#radialGradient3015-1);fill-opacity:1;stroke:none;stroke-width:0.862764"
     id="rect3696-6-3"
     transform="scale(-1)"
     y="-46.25"
     x="-8"
     height="4.4999995"
     width="5" />
  <rect
     style="opacity:0.6;fill:url(#linearGradient1191);fill-opacity:1;stroke:none;stroke-width:0.862764"
     id="rect3700-4-6"
     y="41.75"
     x="8"
     height="4.5"
     width="32" />
  <rect
     style="color:#000000;display:inline;overflow:visible;visibility:visible;opacity:1;fill:url(#linearGradient856-2);fill-opacity:1;fill-rule:nonzero;stroke:none;stroke-width:1;stroke-opacity:0.5;marker:none;enable-background:accumulate"
     id="rect5505-21-1"
     y="5.4999952"
     x="4.5000153"
     ry="4"
     rx="4"
     height="39"
     width="39" />
  <g
     id="g1"
     transform="matrix(0.38891906,0,0,0.37174607,-1.0198797,0.12703454)">
    <path
       style="display:inline;opacity:0.590698;fill:#80b3ff;fill-rule:evenodd;stroke:#f6abab;stroke-width:0.520864;stroke-linecap:round;stroke-linejoin:round;stroke-miterlimit:4;stroke-dasharray:none;stroke-opacity:1"
       id="path5685"
       d="M 31.369645,16.186853 30.056944,117.78955" />
    <path
       style="display:inline;opacity:0.437209;fill:#80b3ff;fill-rule:evenodd;stroke:#80b3ff;stroke-width:0.27368;stroke-linecap:round;stroke-linejoin:round;stroke-miterlimit:4;stroke-dasharray:none;stroke-opacity:1"
       id="path6656"
       d="m 111.18735,19.884016 -93.1778,-0.54308" />
    <path
       style="display:inline;opacity:0.437209;fill:#80b3ff;fill-rule:evenodd;stroke:#80b3ff;stroke-width:0.27793;stroke-linecap:round;stroke-linejoin:round;stroke-miterlimit:4;stroke-dasharray:none;stroke-opacity:1"
       id="path6658"
       d="M 112.92589,25.751392 15.797751,25.212704" />
    <path
       style="display:inline;opacity:0.437209;fill:#80b3ff;fill-rule:evenodd;stroke:#80b3ff;stroke-width:0.277433;stroke-linecap:round;stroke-linejoin:round;stroke-miterlimit:4;stroke-dasharray:none;stroke-opacity:1"
       id="path6660"
       d="M 112.99693,31.621226 15.812531,31.082035" />
    <path
       style="display:inline;opacity:0.437209;fill:#80b3ff;fill-rule:evenodd;stroke:#80b3ff;stroke-width:0.276868;stroke-linecap:round;stroke-linejoin:round;stroke-miterlimit:4;stroke-dasharray:none;stroke-opacity:1"
       id="path6662"
       d="M 112.9822,37.491096 15.805821,36.951312" />
    <path
       style="display:inline;opacity:0.437209;fill:#80b3ff;fill-rule:evenodd;stroke:#80b3ff;stroke-width:0.276892;stroke-linecap:round;stroke-linejoin:round;stroke-miterlimit:4;stroke-dasharray:none;stroke-opacity:1"
       id="path6664"
       d="M 112.98219,43.360659 15.784374,42.820902" />
    <path
       style="display:inline;opacity:0.437209;fill:#80b3ff;fill-rule:evenodd;stroke:#80b3ff;stroke-width:0.27633;stroke-linecap:round;stroke-linejoin:round;stroke-miterlimit:4;stroke-dasharray:none;stroke-opacity:1"
       id="path6666"
       d="M 112.9889,49.230525 15.799121,48.690184" />
    <path
       style="display:inline;overflow:visible;visibility:visible;opacity:0.437209;fill:#80b3ff;fill-opacity:1;fill-rule:evenodd;stroke:#80b3ff;stroke-width:0.276378;stroke-linecap:round;stroke-linejoin:round;stroke-miterlimit:4;stroke-dasharray:none;stroke-dashoffset:0;stroke-opacity:1;marker:none;enable-background:accumulate"
       id="path7637"
       d="M 113.01033,55.100076 15.777688,54.559791" />
    <path
       style="display:inline;overflow:visible;visibility:visible;opacity:0.437209;fill:#80b3ff;fill-opacity:1;fill-rule:evenodd;stroke:#80b3ff;stroke-width:0.275796;stroke-linecap:round;stroke-linejoin:round;stroke-miterlimit:4;stroke-dasharray:none;stroke-dashoffset:0;stroke-opacity:1;marker:none;enable-background:accumulate"
       id="path7639"
       d="M 112.99558,60.969954 15.792423,60.429063" />
    <path
       style="display:inline;overflow:visible;visibility:visible;opacity:0.437209;fill:#80b3ff;fill-opacity:1;fill-rule:evenodd;stroke:#80b3ff;stroke-width:0.275796;stroke-linecap:round;stroke-linejoin:round;stroke-miterlimit:4;stroke-dasharray:none;stroke-dashoffset:0;stroke-opacity:1;marker:none;enable-background:accumulate"
       id="path7641"
       d="M 112.99558,66.839531 15.792428,66.29864" />
    <path
       style="display:inline;overflow:visible;visibility:visible;opacity:0.437209;fill:#80b3ff;fill-opacity:1;fill-rule:evenodd;stroke:#80b3ff;stroke-width:0.274834;stroke-linecap:round;stroke-linejoin:round;stroke-miterlimit:4;stroke-dasharray:none;stroke-dashoffset:0;stroke-opacity:1;marker:none;enable-background:accumulate"
       id="path7645"
       d="M 113.0733,72.709604 15.757632,72.167725" />
    <path
       style="display:inline;overflow:visible;visibility:visible;opacity:0.437209;fill:#80b3ff;fill-opacity:1;fill-rule:evenodd;stroke:#80b3ff;stroke-width:0.274786;stroke-linecap:round;stroke-linejoin:round;stroke-miterlimit:4;stroke-dasharray:none;stroke-dashoffset:0;stroke-opacity:1;marker:none;enable-background:accumulate"
       id="path7647"
       d="M 113.03041,78.547311 15.757606,78.005371" />
    <path
       style="display:inline;overflow:visible;visibility:visible;opacity:0.437209;fill:#80b3ff;fill-opacity:1;fill-rule:evenodd;stroke:#80b3ff;stroke-width:0.273128;stroke-linecap:round;stroke-linejoin:round;stroke-miterlimit:4;stroke-dasharray:none;stroke-dashoffset:0;stroke-opacity:1;marker:none;enable-background:accumulate"
       id="path7649"
       d="M 113.00762,84.44964 15.780403,83.905988" />
    <path
       style="display:inline;overflow:visible;visibility:visible;opacity:0.437209;fill:#80b3ff;fill-opacity:1;fill-rule:evenodd;stroke:#80b3ff;stroke-width:0.273175;stroke-linecap:round;stroke-linejoin:round;stroke-miterlimit:4;stroke-dasharray:none;stroke-dashoffset:0;stroke-opacity:1;marker:none;enable-background:accumulate"
       id="path7651"
       d="M 113.02906,90.188384 15.75897,89.644778" />
    <path
       style="display:inline;overflow:visible;visibility:visible;opacity:0.437209;fill:#80b3ff;fill-opacity:1;fill-rule:evenodd;stroke:#80b3ff;stroke-width:0.273223;stroke-linecap:round;stroke-linejoin:round;stroke-miterlimit:4;stroke-dasharray:none;stroke-dashoffset:0;stroke-opacity:1;marker:none;enable-background:accumulate"
       id="path7653"
       d="M 113.05048,96.008482 15.737541,95.464942" />
    <path
       style="display:inline;overflow:visible;visibility:visible;opacity:0.437209;fill:#80b3ff;fill-opacity:1;fill-rule:evenodd;stroke:#80b3ff;stroke-width:0.2732;stroke-linecap:round;stroke-linejoin:round;stroke-miterlimit:4;stroke-dasharray:none;stroke-dashoffset:0;stroke-opacity:1;marker:none;enable-background:accumulate"
       id="path7655"
       d="m 113.07196,101.82862 -97.291519,-0.5436" />
    <path
       style="display:inline;overflow:visible;visibility:visible;opacity:0.437209;fill:#80b3ff;fill-opacity:1;fill-rule:evenodd;stroke:#80b3ff;stroke-width:0.273199;stroke-linecap:round;stroke-linejoin:round;stroke-miterlimit:4;stroke-dasharray:none;stroke-dashoffset:0;stroke-opacity:1;marker:none;enable-background:accumulate"
       id="path7657"
       d="m 113.02903,107.64873 -97.2915,-0.54356" />
    <path
       style="display:inline;overflow:visible;visibility:visible;opacity:0.437209;fill:#80b3ff;fill-opacity:1;fill-rule:evenodd;stroke:#80b3ff;stroke-width:0.26994;stroke-linecap:round;stroke-linejoin:round;stroke-miterlimit:4;stroke-dasharray:none;stroke-dashoffset:0;stroke-opacity:1;marker:none;enable-background:accumulate"
       id="path7659"
       d="M 111.46426,113.79918 17.066256,113.25223" />
    <path
       style="display:inline;opacity:0.590698;fill:none;stroke:#b9d5ff;stroke-width:0.517568;stroke-linecap:round;stroke-linejoin:round;stroke-miterlimit:4;stroke-dasharray:none;stroke-opacity:1"
       id="path7671"
       d="M 97.555386,16.241343 100.66734,117.73926" />
    <path
       style="fill:none;stroke:url(#linearGradient3117);stroke-width:1.10058px;stroke-linecap:butt;stroke-linejoin:miter;stroke-opacity:1"
       id="path3715"
       d="m 32.269157,25.290866 h 6.890795 m 0.984401,0 h 6.398595 m 1.029983,0 h 5.709516 m 0.938816,0 h 2.460997 m 0.984402,0 h 5.512634 m 1.08284,0 h 14.470669 m 0.984405,0 h 11.025267 m 0.984404,0 h 3.346955 M 32.269157,30.79377 h 10.684485 m 1.243063,0 h 5.105291 m 0.94376,0 h 2.519369 m 1.025039,0 h 4.702722 m 0.984402,0 h 4.822872 m 0.9104,0 h 7.573047 m 0.984405,0 h 9.99063 m -51.489485,5.473597 h 9.043335 m 0.950004,0 h 14.89357 m 0.912808,0 h 7.223059 m 0.925788,0 h 6.757084 m 0.969013,0 h 5.756061 m 0.92579,0 9.052832,0.05861 m -57.409344,5.4736 h 12.573666 m 0.987359,0 h 13.589765 m 0.938818,0 h 5.340316 m 0.984402,0 h 12.710939 m 0.855527,0 h 8.712031 m 0.984403,0 h 3.448109 m 0.984393,0 h 1.907296 m -64.017024,5.502904 h 4.693416 m 1.44199,0 H 55.782909 M 32.269157,77.018172 h 10.684485 m 1.243063,0 h 5.105291 m 0.94376,0 h 2.519369 m 1.025039,0 h 4.702722 m 0.984402,0 h 4.822872 m 0.9104,0 h 7.573047 m -40.51445,12.01635 h 9.043335 m 0.950004,0 h 14.89357 m 0.912808,0 h 7.223059 m 25.524735,0.18008 H 105.56954 M 32.269157,71.515267 h 12.573666 m 0.987359,0 h 13.589765 m 0.938818,0 h 5.340316 m 0.984402,0 H 79.394422 M 32.269157,59.408876 h 6.890795 m 0.984401,0 h 6.398595 m 1.029983,0 h 5.709516 m 0.938816,0 h 2.460997 m 0.984402,0 h 5.512634 m 1.08284,0 h 14.470669 m 0.984405,0 h 11.025267 m -58.47332,6.603485 h 11.604987 m 0.912845,0 H 57.11002 m 0.938818,0 h 4.81872 m 0.90989,0 h 11.593231 m 0.930041,0 H 88.961968 M 32.269157,94.627467 h 10.84465 m 1.164121,0 h 4.78111 m 1.119842,0 h 2.384683 m 0.759099,0 h 4.707503 m 0.624959,0 h 24.922467 m 1.172701,0 h 6.652819 m 0.894542,0 h 1.679796 m -49.353593,6.603493 h 3.537563 m -15.892262,0 h 11.319129 m 5.477876,0 h 8.230753 m 0.870664,0 h 12.082236 m 0.938817,0 h 8.196447 m 0.825084,0 h 1.689001 m 0.923523,0 h 10.408061 m 1.064063,0 h 5.449127 m -55.120082,5.5029 h 4.994858 m -17.349557,0 h 11.319129 m 7.11289,0 h 7.022264" />
  </g>
  <rect
     style="opacity:0.673306;fill:none;stroke:url(#linearGradient3058-5);stroke-width:1;stroke-linecap:round;stroke-linejoin:round;stroke-miterlimit:4;stroke-dasharray:none;stroke-dashoffset:0;stroke-opacity:1"
     id="rect6741-2"
     y="6.4999952"
     x="5.5000153"
     ry="3"
     rx="3"
     height="37"
     width="37" />
  <rect
     style="color:#000000;display:inline;overflow:visible;visibility:visible;opacity:0.5;fill:none;fill-opacity:1;fill-rule:nonzero;stroke:#273445;stroke-width:1;stroke-opacity:1;marker:none;enable-background:accumulate"
     id="rect860"
     y="5.4999952"
     x="4.5000153"
     ry="4"
     rx="4"
     height="39"
     width="39" />
  <path
     style="opacity:0.15;fill:#0c0c0c;fill-opacity:1;fill-rule:evenodd;stroke:none;stroke-width:0.440772"
     id="path2422"
     d="m 36.33869,21.919788 c -0.07786,0.0012 -0.14079,0.03552 -0.192838,0.06888 l -13.85678,8.829219 -2.561988,1.625348 -0.06888,0.02755 -3.030309,6.818189 7.493128,0.220389 0.05508,-0.04131 2.575765,-1.62535 13.30582,-8.539953 -0.08264,-2.865019 c -0.236092,-0.462299 -0.515173,-0.963695 -0.84022,-1.473832 -0.926335,-1.453799 -1.909749,-2.601821 -2.520667,-2.961438 -0.101817,-0.05994 -0.197624,-0.08379 -0.275481,-0.08264 z" />
  <path
     style="fill:url(#linearGradient3113);fill-opacity:1;stroke:none;stroke-width:0.220385;stroke-linecap:butt;stroke-linejoin:round;stroke-miterlimit:4;stroke-dasharray:none;stroke-dashoffset:0;stroke-opacity:1"
     id="rect2383"
     d="m 20.704882,30.333139 c 0.524115,-0.393292 1.9947,0.344459 3.346102,1.689138 1.348173,1.341463 2.058541,2.776896 1.674153,3.306141 -0.0014,0.002 0.03309,0.02943 0.03156,0.03142 L 44.574192,16.450111 c 0.477764,-0.480102 -0.26455,-1.997287 -1.658856,-3.384654 -1.394307,-1.387369 -2.915214,-2.122148 -3.392974,-1.642041 z" />
  <path
     style="opacity:0.6;fill:#f9c440;fill-opacity:1;stroke:none;stroke-width:0.440772"
     id="path3208"
     d="m 20.704882,30.333137 c 0.524115,-0.393292 1.994701,0.34446 3.346102,1.689139 1.348172,1.341461 2.058541,2.776895 1.674152,3.30614 -0.0014,0.002 0.03309,0.02943 0.03157,0.03142 l 12.958986,-13.022513 0.04687,-0.0471 c 0.0015,-0.002 -0.03304,-0.02941 -0.03156,-0.03142 0.384384,-0.529249 -0.325987,-1.964681 -1.674161,-3.306144 -1.351396,-1.344679 -2.821986,-2.08243 -3.346102,-1.689137 l -0.04687,0.0471 -12.958986,13.022511 h -5e-6 z" />
  <path
     d="m 20.704882,30.333139 c 0.524115,-0.393292 1.9947,0.344459 3.346102,1.689138 1.348173,1.341463 2.058541,2.776896 1.674153,3.306141 -0.0014,0.002 0.03309,0.02943 0.03156,0.03142 L 44.574192,16.450111 c 0.477764,-0.480102 -0.26455,-1.997287 -1.658856,-3.384654 -1.394307,-1.387369 -2.915214,-2.122148 -3.392974,-1.642041 z"
     id="path940"
     style="fill:none;fill-opacity:1;stroke:#ad5f00;stroke-width:0.220385;stroke-linecap:butt;stroke-linejoin:round;stroke-miterlimit:4;stroke-dasharray:none;stroke-dashoffset:0;stroke-opacity:1" />
  <path
     id="path933"
     d="m 39.893274,11.277551 c -0.155212,0.0083 -0.28146,0.05547 -0.371036,0.145489 l -5.810966,5.840232 c 0.524633,-0.392291 1.994502,0.344882 3.345397,1.689052 1.348172,1.341463 2.058794,2.777404 1.674411,3.306655 -0.0015,0.002 0.0332,0.02901 0.03186,0.031 l 5.810963,-5.840232 c 0.477764,-0.480105 -0.264609,-1.996767 -1.65892,-3.384134 -1.132871,-1.127236 -2.349101,-1.824042 -3.0217,-1.788055 z"
     style="fill:url(#linearGradient937);fill-opacity:1;stroke:#555761;stroke-width:0.220385;stroke-linecap:butt;stroke-linejoin:round;stroke-miterlimit:4;stroke-dasharray:none;stroke-dashoffset:0;stroke-opacity:1" />
  <path
     style="opacity:0.9;fill:#fe9ab8;fill-opacity:1;stroke:#de3e80;stroke-width:0.220385;stroke-linecap:butt;stroke-linejoin:round;stroke-miterlimit:4;stroke-dasharray:none;stroke-dashoffset:0;stroke-opacity:1"
     id="rect3175"
     d="m 37.225834,13.731201 c 0.524116,-0.393292 1.994699,0.34446 3.346102,1.689139 1.348174,1.34146 2.058539,2.776895 1.674149,3.306139 -0.0016,0.002 0.03304,0.02943 0.03155,0.03142 l 2.296532,-2.307786 0.04687,-0.0471 c 0.0015,-0.002 -0.03304,-0.02941 -0.03156,-0.03142 0.384381,-0.529247 -0.325985,-1.96468 -1.674158,-3.306142 -1.351405,-1.344676 -2.821987,-2.082429 -3.346101,-1.689135 l -0.04687,0.0471 -2.296526,2.307786 v 0 z" />
  <path
     style="fill:url(#linearGradient3108);fill-opacity:1;stroke:none;stroke-width:0.440772"
     id="path3233"
     d="m 34.651701,16.31795 c 0.524116,-0.393295 1.994704,0.344459 3.346103,1.689137 1.348173,1.341462 2.058545,2.776895 1.674149,3.306142 -0.0015,0.002 0.03304,0.02943 0.03156,0.03143 l 0.234345,-0.235492 c 0.0015,-0.002 -0.03305,-0.02941 -0.03155,-0.03142 0.384391,-0.529246 -0.325981,-1.964681 -1.674152,-3.30614 -1.351404,-1.344679 -2.821991,-2.082432 -3.346104,-1.68914 l -0.234341,0.235491 z" />
  <path
     style="fill:url(#linearGradient3105);fill-opacity:1;stroke:none;stroke-width:0.440772"
     id="path3216"
     d="m 34.436943,16.53376 c 0.524119,-0.393293 1.994706,0.344458 3.346107,1.689135 1.348169,1.341464 2.05854,2.776896 1.674148,3.306142 -0.0015,0.002 0.03304,0.02943 0.03155,0.03142 l 0.23434,-0.23549 c 0.0015,-0.002 -0.03304,-0.02941 -0.03156,-0.03142 0.384394,-0.529245 -0.325978,-1.964677 -1.674147,-3.30614 -1.351403,-1.344678 -2.821991,-2.082431 -3.346107,-1.689136 l -0.234339,0.235488 v 2e-6 z" />
  <path
     style="fill:url(#linearGradient3101);fill-opacity:1;stroke:none;stroke-width:0.440772"
     id="path3248"
     d="m 35.397983,15.568011 c 0.524117,-0.393294 1.994698,0.344456 3.346102,1.689137 1.348174,1.341463 2.058543,2.776895 1.674152,3.306141 -0.0015,0.002 0.03304,0.02943 0.03156,0.03143 l 0.234343,-0.23549 c 0.0015,-0.002 -0.03304,-0.02941 -0.03156,-0.03142 0.384388,-0.529245 -0.325978,-1.964679 -1.674151,-3.306138 -1.351403,-1.34468 -2.821987,-2.082432 -3.346104,-1.689138 l -0.234341,0.235488 v 0 z" />
  <path
     style="fill:url(#linearGradient3098);fill-opacity:1;stroke:none;stroke-width:0.440772"
     id="path3250"
     d="m 35.183223,15.78382 c 0.524116,-0.393293 1.994708,0.34446 3.346103,1.689138 1.348172,1.341462 2.058545,2.776894 1.674157,3.30614 -0.0015,0.002 0.03304,0.02943 0.03155,0.03142 l 0.234341,-0.235491 c 0.0015,-0.002 -0.03304,-0.02941 -0.03155,-0.03142 0.384388,-0.529248 -0.325981,-1.96468 -1.67415,-3.306139 -1.351399,-1.344681 -2.821987,-2.082433 -3.346107,-1.689138 l -0.23434,0.235489 z" />
  <path
     style="fill:url(#linearGradient3095);fill-opacity:1;stroke:none;stroke-width:0.440772"
     id="path3256"
     d="m 36.14787,14.814447 c 0.524113,-0.393291 1.994696,0.344458 3.346099,1.689138 1.348174,1.341462 2.058544,2.776895 1.674157,3.30614 -0.0015,0.002 0.03304,0.02943 0.03156,0.03142 l 0.234336,-0.235489 c 0.0015,-0.002 -0.03304,-0.02941 -0.03156,-0.03142 0.384389,-0.529244 -0.325982,-1.964677 -1.674149,-3.306139 -1.351403,-1.344678 -2.821986,-2.082431 -3.346106,-1.689136 z" />
  <path
     style="fill:url(#linearGradient3092);fill-opacity:1;stroke:none;stroke-width:0.440772"
     id="path3258"
     d="m 35.933114,15.030257 c 0.524113,-0.393293 1.9947,0.344459 3.3461,1.689139 1.348172,1.341461 2.058541,2.776894 1.674152,3.306138 -0.0015,0.002 0.03305,0.02943 0.03155,0.03142 l 0.234346,-0.235487 c 0.0015,-0.002 -0.03304,-0.02941 -0.03156,-0.03142 C 41.572095,19.260794 40.861723,17.825361 39.51355,16.4839 38.162151,15.139221 36.691563,14.401468 36.167447,14.794764 L 35.93311,15.03025 v 0 z" />
  <path
     style="fill:url(#linearGradient3087);fill-opacity:1;fill-rule:evenodd;stroke:url(#linearGradient3089);stroke-width:0.220385;stroke-linecap:butt;stroke-linejoin:miter;stroke-miterlimit:4;stroke-dasharray:none;stroke-opacity:1"
     id="path3270"
     d="m 17.098774,38.891957 8.560973,-3.491783 0.07294,-0.07293 c 0.384388,-0.529246 -0.335247,-1.96479 -1.683419,-3.306255 -1.351402,-1.34468 -2.82025,-2.078353 -3.344364,-1.685059 l -3.606127,8.556031 z" />
  <path
     style="fill:#333333;fill-opacity:1;fill-rule:evenodd;stroke:#1a1a1a;stroke-width:0.220385;stroke-linecap:butt;stroke-linejoin:miter;stroke-miterlimit:4;stroke-dasharray:none;stroke-opacity:1"
     id="path3281"
     d="m 18.075576,36.574632 -0.977327,2.308172 2.335006,-0.957249 C 19.246108,37.701386 19.07334,37.473696 18.848644,37.25012 18.589959,36.992726 18.335518,36.783874 18.075576,36.574632 Z" />
</svg>
